<svg id="Layer_1" data-name="Layer 1" xmlns="http://www.w3.org/2000/svg" viewBox="0 0 168 168"><defs><style>.cls-1{isolation:isolate;opacity:0.35;}.cls-2{fill:#f2f2f2;}.cls-3{fill:#232f3e;}.cls-4{fill:#333;}.cls-5{fill:#fff;}</style></defs><path class="cls-1" d="M29,168A25,25,0,0,1,4,143V29A25,25,0,0,1,29,4H143a25,25,0,0,1,25,25V143a25,25,0,0,1-25,25Z"/><path class="cls-2" d="M25,164A25,25,0,0,1,0,139V25A25,25,0,0,1,25,0H139a25,25,0,0,1,25,25V139a25,25,0,0,1-25,25Z"/><path class="cls-3" d="M13,139V25A12,12,0,0,1,25,13H139a12,12,0,0,1,12,12V139a12,12,0,0,1-12,12H25A12,12,0,0,1,13,139Z"/><path class="cls-4" d="M139,154H25a15,15,0,0,1-15-15V25A15,15,0,0,1,25,10H139a15,15,0,0,1,15,15V139A15,15,0,0,1,139,154ZM25,16a9,9,0,0,0-9,9V139a9,9,0,0,0,9,9H139a9,9,0,0,0,9-9V25a9,9,0,0,0-9-9Z"/><path class="cls-5" d="M59.09,73.41a10.65,10.65,0,0,0,.38,3.1A18.73,18.73,0,0,0,60.59,79a1.49,1.49,0,0,1,.25.8,1.38,1.38,0,0,1-.67,1L58,82.35a1.63,1.63,0,0,1-.91.31,1.55,1.55,0,0,1-1-.49,10.65,10.65,0,0,1-1.26-1.64c-.39-.67-.75-1.35-1.08-2.06a12.91,12.91,0,0,1-10.27,4.82,9.59,9.59,0,0,1-7-2.51A9.84,9.84,0,0,1,37,66.88a12.68,12.68,0,0,1,8.55-2.73,28.5,28.5,0,0,1,3.71.28c1.29.18,2.62.46,4,.77V62.65c0-2.65-.55-4.5-1.64-5.58s-3-1.61-5.69-1.61a16.09,16.09,0,0,0-3.77.45,28.47,28.47,0,0,0-3.77,1.19,10.69,10.69,0,0,1-1.23.46,2.54,2.54,0,0,1-.55.1c-.49,0-.74-.35-.74-1.08V54.87a2.2,2.2,0,0,1,.25-1.23,2.53,2.53,0,0,1,1-.73,20,20,0,0,1,4.39-1.57A21.36,21.36,0,0,1,47,50.67c4.16,0,7.2.95,9.15,2.84S59,58.25,59,62.09V73.41ZM44.91,78.72a11.34,11.34,0,0,0,3.6-.63,7.82,7.82,0,0,0,3.32-2.23A5.59,5.59,0,0,0,53,73.62a13,13,0,0,0,.35-3V69.12a29.42,29.42,0,0,0-3.22-.6,25.68,25.68,0,0,0-3.28-.21,8.1,8.1,0,0,0-5.21,1.4,5.75,5.75,0,0,0-.41,7.71A4.79,4.79,0,0,0,44.91,78.72ZM73,82.49a2,2,0,0,1-1.33-.35,2.86,2.86,0,0,1-.74-1.36l-8.2-27a6.06,6.06,0,0,1-.32-1.4.76.76,0,0,1,.84-.87h3.43a1.92,1.92,0,0,1,1.35.35,2.7,2.7,0,0,1,.7,1.36l5.87,23.12L80,53.22a2.54,2.54,0,0,1,.66-1.36,2.38,2.38,0,0,1,1.4-.35h2.79a2.13,2.13,0,0,1,1.4.35,2.3,2.3,0,0,1,.66,1.36l5.52,23.4,6-23.4a3,3,0,0,1,.7-1.36,2.26,2.26,0,0,1,1.36-.35h3.25a.78.78,0,0,1,.88.87,3,3,0,0,1-.08.56,4.59,4.59,0,0,1-.24.88l-8.41,27a2.66,2.66,0,0,1-.74,1.36,2.22,2.22,0,0,1-1.33.35h-3a2.09,2.09,0,0,1-1.4-.35,2.46,2.46,0,0,1-.66-1.4L83.4,58.25,78,80.74a2.88,2.88,0,0,1-.66,1.4,2.24,2.24,0,0,1-1.4.35Zm44.87.94a23.08,23.08,0,0,1-5.38-.63,15.82,15.82,0,0,1-4-1.4,2.49,2.49,0,0,1-1.08-1,2.73,2.73,0,0,1-.21-1V77.67c0-.73.28-1.08.8-1.08a2,2,0,0,1,.63.1c.21.07.53.21.88.35a18.73,18.73,0,0,0,3.84,1.22,21,21,0,0,0,4.16.42,9.38,9.38,0,0,0,5.09-1.15,3.78,3.78,0,0,0,1.82-3.32,3.35,3.35,0,0,0-.94-2.44A8.85,8.85,0,0,0,119.89,70l-5.06-1.57a10.63,10.63,0,0,1-5.59-3.56,8.31,8.31,0,0,1-1.75-5.07,7.86,7.86,0,0,1,.94-3.87A8.86,8.86,0,0,1,111,53a11,11,0,0,1,3.63-1.82,15.24,15.24,0,0,1,4.4-.6,18.37,18.37,0,0,1,2.34.14c.8.11,1.53.25,2.27.39s1.36.35,2,.56a7.64,7.64,0,0,1,1.47.63,2.94,2.94,0,0,1,1,.87,1.87,1.87,0,0,1,.31,1.15V56c0,.74-.28,1.12-.8,1.12a3.45,3.45,0,0,1-1.33-.42,16.1,16.1,0,0,0-6.7-1.36,9,9,0,0,0-4.65,1,3.36,3.36,0,0,0-1.64,3.1,3.29,3.29,0,0,0,1,2.48,10.43,10.43,0,0,0,3.84,1.93l5,1.56a10.68,10.68,0,0,1,5.41,3.36,7.91,7.91,0,0,1,1.61,4.89,9,9,0,0,1-.91,4,9.42,9.42,0,0,1-2.55,3.07,11.09,11.09,0,0,1-3.88,2A16.54,16.54,0,0,1,117.83,83.43Zm6.6,17c-11.49,8.48-28.18,13-42.53,13A77,77,0,0,1,30,93.59c-1.08-1-.1-2.3,1.19-1.53a104.77,104.77,0,0,0,52,13.79,103.58,103.58,0,0,0,39.63-8.1C124.67,96.88,126.32,99,124.43,100.41ZM129.22,95c-1.47-1.88-9.72-.9-13.45-.45-1.12.14-1.29-.84-.28-1.57,6.56-4.61,17.36-3.28,18.61-1.75s-.35,12.37-6.49,17.53c-.94.81-1.85.39-1.43-.66C127.58,104.6,130.68,96.81,129.22,95Z"/></svg>