<svg id="Layer_1" data-name="Layer 1" xmlns="http://www.w3.org/2000/svg" viewBox="0 0 90 90"><defs><style>.cls-1{fill:#010101;isolation:isolate;opacity:0.35;}.cls-2{fill:#f3f3f3;}.cls-3{fill:#232f3e;}.cls-4{fill:#333;}.cls-5{fill:#fff;}</style></defs><circle class="cls-1" cx="46" cy="46" r="44"/><circle class="cls-2" cx="44" cy="44" r="44"/><path class="cls-3" d="M44,6.5A37.5,37.5,0,1,0,81.5,44,37.5,37.5,0,0,0,44,6.5Z"/><path class="cls-4" d="M44,83A39,39,0,1,1,83,44,39.05,39.05,0,0,1,44,83ZM44,8A36,36,0,1,0,80,44,36,36,0,0,0,44,8Z"/><path class="cls-5" d="M35.62,41.48a4.32,4.32,0,0,0,.15,1.27,8.8,8.8,0,0,0,.46,1,.52.52,0,0,1,.1.32.54.54,0,0,1-.27.43l-.9.6a.57.57,0,0,1-.8-.07,4.09,4.09,0,0,1-.51-.67c-.16-.27-.31-.56-.45-.84a5.29,5.29,0,0,1-4.2,2,3.9,3.9,0,0,1-2.86-1,4,4,0,0,1,.24-5.69,5.16,5.16,0,0,1,3.5-1.12,10.13,10.13,0,0,1,1.52.12c.53.07,1.07.18,1.64.31v-1a3.13,3.13,0,0,0-.67-2.29,3.26,3.26,0,0,0-2.33-.66,6.36,6.36,0,0,0-1.54.19,11.6,11.6,0,0,0-1.55.48,3,3,0,0,1-.5.19.85.85,0,0,1-.23,0c-.2,0-.3-.14-.3-.44v-.7a.91.91,0,0,1,.1-.5,1.06,1.06,0,0,1,.4-.3,8,8,0,0,1,1.8-.65,8.86,8.86,0,0,1,2.24-.27,5.22,5.22,0,0,1,3.74,1.16,4.71,4.71,0,0,1,1.19,3.52v4.63Zm-5.81,2.18a4.76,4.76,0,0,0,1.48-.26,3.14,3.14,0,0,0,1.35-.92,2.31,2.31,0,0,0,.49-.91,5.53,5.53,0,0,0,.14-1.25v-.6c-.43-.1-.87-.18-1.31-.24a10.2,10.2,0,0,0-1.35-.09,3.26,3.26,0,0,0-2.13.58,2,2,0,0,0-.7,1.64,1.85,1.85,0,0,0,2,2ZM41.3,45.2a.82.82,0,0,1-.55-.14,1.29,1.29,0,0,1-.3-.56L37.09,33.44a2.63,2.63,0,0,1-.13-.57.32.32,0,0,1,.35-.36h1.4a.77.77,0,0,1,.55.15,1,1,0,0,1,.29.55L42,42.68l2.24-9.47a.93.93,0,0,1,.27-.55,1,1,0,0,1,.57-.15h1.14a.9.9,0,0,1,.58.15,1,1,0,0,1,.27.55l2.26,9.59,2.47-9.59a1.23,1.23,0,0,1,.29-.55.9.9,0,0,1,.55-.15h1.33a.32.32,0,0,1,.36.36,1,1,0,0,1,0,.23,1.61,1.61,0,0,1-.1.36l-3.44,11a1.18,1.18,0,0,1-.3.56,1,1,0,0,1-.55.14H48.63a.87.87,0,0,1-.57-.14,1.08,1.08,0,0,1-.27-.57l-2.22-9.23-2.2,9.21a1.16,1.16,0,0,1-.27.58.91.91,0,0,1-.57.14Zm18.37.39a9.59,9.59,0,0,1-2.2-.26,6.64,6.64,0,0,1-1.64-.57,1.07,1.07,0,0,1-.45-.4,1.14,1.14,0,0,1-.08-.4v-.73c0-.3.11-.45.32-.45a.75.75,0,0,1,.26,0l.36.14a7.38,7.38,0,0,0,1.57.5,9,9,0,0,0,1.71.17,3.86,3.86,0,0,0,2.08-.47,1.55,1.55,0,0,0,.75-1.36,1.39,1.39,0,0,0-.39-1,3.63,3.63,0,0,0-1.44-.74l-2.08-.65A4.31,4.31,0,0,1,56.16,38a3.32,3.32,0,0,1-.72-2.07,3.18,3.18,0,0,1,.39-1.59,3.6,3.6,0,0,1,1-1.17,4.47,4.47,0,0,1,1.48-.74,6,6,0,0,1,1.81-.25,7.57,7.57,0,0,1,1,.06c.33,0,.63.1.93.16s.56.14.82.23a3,3,0,0,1,.6.25,1.26,1.26,0,0,1,.43.36.8.8,0,0,1,.13.47v.67c0,.31-.12.46-.33.46a1.53,1.53,0,0,1-.55-.17,6.62,6.62,0,0,0-2.74-.56,3.68,3.68,0,0,0-1.9.4,1.39,1.39,0,0,0-.68,1.28,1.36,1.36,0,0,0,.43,1,4.3,4.3,0,0,0,1.58.79l2,.64a4.3,4.3,0,0,1,2.21,1.38,3.17,3.17,0,0,1,.66,2,3.75,3.75,0,0,1-.37,1.66,4.06,4.06,0,0,1-1,1.26,5,5,0,0,1-1.59.8A6.87,6.87,0,0,1,59.67,45.59Zm2.71,6.95C57.67,56,50.83,57.86,45,57.86a31.54,31.54,0,0,1-21.27-8.11c-.44-.4,0-1,.49-.63a42.85,42.85,0,0,0,21.28,5.65,42.49,42.49,0,0,0,16.23-3.32C62.48,51.09,63.15,52,62.38,52.54Zm2-2.23c-.61-.78-4-.38-5.51-.19-.46.06-.53-.34-.11-.64,2.68-1.89,7.1-1.35,7.62-.72s-.15,5.06-2.66,7.18c-.39.33-.76.16-.59-.27C63.66,54.25,64.94,51.06,64.34,50.31Z"/></svg>