<svg id="Layer_1" data-name="Layer 1" xmlns="http://www.w3.org/2000/svg" viewBox="0 0 40 40"><defs><style>.cls-1{fill:#232f3e;}.cls-2{fill:#fff;}</style></defs><path class="cls-1" d="M20,0A20,20,0,1,0,40,20,20,20,0,0,0,20,0Z"/><path class="cls-2" d="M15.42,18.28a2.46,2.46,0,0,0,.07.62,4.31,4.31,0,0,0,.23.51.33.33,0,0,1,0,.16.26.26,0,0,1-.14.21l-.44.29a.28.28,0,0,1-.18.06.29.29,0,0,1-.21-.1,3.92,3.92,0,0,1-.25-.32,3.29,3.29,0,0,1-.21-.42,2.58,2.58,0,0,1-2.06,1,1.92,1.92,0,0,1-1.39-.5A2,2,0,0,1,11,17a2.53,2.53,0,0,1,1.71-.55,4.93,4.93,0,0,1,.75.06c.25,0,.52.09.8.15v-.51A1.55,1.55,0,0,0,13.93,15a1.63,1.63,0,0,0-1.14-.32,3.33,3.33,0,0,0-.75.09,6.7,6.7,0,0,0-.76.24,1.17,1.17,0,0,1-.24.09l-.11,0q-.15,0-.15-.21v-.35a.39.39,0,0,1,.05-.24.43.43,0,0,1,.2-.15,4,4,0,0,1,.87-.31A4.53,4.53,0,0,1,13,13.73a2.52,2.52,0,0,1,1.83.57A2.29,2.29,0,0,1,15.4,16v2.26Zm-2.84,1.06a2.36,2.36,0,0,0,.72-.12,1.66,1.66,0,0,0,.67-.45,1.07,1.07,0,0,0,.23-.45,2.53,2.53,0,0,0,.07-.6v-.3c-.21-.05-.42-.09-.64-.12s-.44,0-.66,0a1.61,1.61,0,0,0-1,.28,1,1,0,0,0-.34.8.9.9,0,0,0,1,1Zm5.61.76a.37.37,0,0,1-.26-.07.52.52,0,0,1-.15-.27l-1.64-5.4a1.43,1.43,0,0,1-.07-.28c0-.12.06-.18.17-.18h.69a.38.38,0,0,1,.27.07.52.52,0,0,1,.14.27l1.17,4.63,1.09-4.63a.56.56,0,0,1,.13-.27A.58.58,0,0,1,20,13.9h.56a.39.39,0,0,1,.28.07.4.4,0,0,1,.13.27l1.11,4.68,1.21-4.68a.55.55,0,0,1,.14-.27.5.5,0,0,1,.27-.07h.65c.11,0,.17.06.17.18a.45.45,0,0,1,0,.11.84.84,0,0,1-.05.17l-1.68,5.4a.48.48,0,0,1-.15.27.42.42,0,0,1-.27.07h-.6a.43.43,0,0,1-.28-.07.52.52,0,0,1-.13-.28l-1.08-4.5-1.08,4.5a.49.49,0,0,1-.13.28.43.43,0,0,1-.28.07Zm9,.19a4.84,4.84,0,0,1-1.08-.13,2.8,2.8,0,0,1-.8-.28.38.38,0,0,1-.26-.39v-.36c0-.14,0-.21.16-.21a.25.25,0,0,1,.12,0l.18.07a3.84,3.84,0,0,0,.77.24,3.91,3.91,0,0,0,.83.09,1.93,1.93,0,0,0,1-.23.76.76,0,0,0,.36-.67.65.65,0,0,0-.19-.49,1.71,1.71,0,0,0-.7-.36l-1-.31a2.11,2.11,0,0,1-1.12-.72,1.61,1.61,0,0,1-.35-1,1.49,1.49,0,0,1,.19-.77,1.74,1.74,0,0,1,.5-.58,2.17,2.17,0,0,1,.73-.36,3.17,3.17,0,0,1,.88-.12,3.55,3.55,0,0,1,.46,0l.46.08.4.11a1.7,1.7,0,0,1,.29.12.6.6,0,0,1,.21.18.32.32,0,0,1,.06.23v.33c0,.14-.05.22-.16.22a.79.79,0,0,1-.26-.08,3.29,3.29,0,0,0-1.34-.28,1.81,1.81,0,0,0-.93.2.66.66,0,0,0-.33.62.67.67,0,0,0,.21.5,2.17,2.17,0,0,0,.77.38l1,.31a2.19,2.19,0,0,1,1.08.68,1.53,1.53,0,0,1,.32,1,1.76,1.76,0,0,1-.18.81,1.91,1.91,0,0,1-.51.62,2.38,2.38,0,0,1-.78.39A3.21,3.21,0,0,1,27.17,20.29Zm1.32,3.39A15.06,15.06,0,0,1,20,26.28a15.42,15.42,0,0,1-10.39-4c-.21-.2,0-.46.24-.31a20.94,20.94,0,0,0,10.39,2.76,20.75,20.75,0,0,0,7.93-1.62C28.53,23,28.86,23.4,28.49,23.68Zm1-1.09c-.29-.38-1.94-.18-2.69-.09-.22,0-.25-.17-.05-.31a4.11,4.11,0,0,1,3.72-.35c.25.31-.07,2.47-1.3,3.5-.19.16-.37.08-.28-.13C29.12,24.52,29.74,23,29.44,22.59Z"/></svg>