<svg id="Layer_1" data-name="Layer 1" xmlns="http://www.w3.org/2000/svg" viewBox="0 0 40 40"><defs><style>.cls-1,.cls-3{fill:#00599c;}.cls-2{fill:#fff;}.cls-2,.cls-3{fill-rule:evenodd;}</style></defs><path class="cls-1" d="M20,0A20,20,0,1,0,40,20,20,20,0,0,0,20,0Z"/><path class="cls-2" d="M19.45,9.64a1.13,1.13,0,0,1,1.1,0L29,14.36a1.06,1.06,0,0,1,.55.92v9.44a1.06,1.06,0,0,1-.55.92l-8.4,4.72a1.13,1.13,0,0,1-1.1,0l-8.4-4.72a1.06,1.06,0,0,1-.55-.92V15.28a1.06,1.06,0,0,1,.55-.92Z"/><path class="cls-2" d="M10.65,25.2a.86.86,0,0,1-.15-.57V15.25a1.06,1.06,0,0,1,.55-.92l8.37-4.69a1.21,1.21,0,0,1,1.14,0l8.35,4.67a1,1,0,0,1,.33.29Z"/><path class="cls-3" d="M20,13a7,7,0,1,1-7,7A7,7,0,0,1,20,13Zm0,3.5A3.5,3.5,0,1,1,16.5,20,3.5,3.5,0,0,1,20,16.5Z"/><path class="cls-2" d="M29.24,14.6a1.15,1.15,0,0,1,.26.89c0,1.9,0,7.3,0,9.2a1.1,1.1,0,0,1-.16.56L19.8,20Z"/><path class="cls-3" d="M23.5,18.5h1v3h-1Zm3.5,0h1v3H27Z"/><path class="cls-3" d="M22.5,19.5h3v1h-3Zm3.5,0h3v1H26Z"/></svg>