<svg id="Layer_1" data-name="Layer 1" xmlns="http://www.w3.org/2000/svg" viewBox="0 0 168 168"><defs><style>.cls-1{isolation:isolate;opacity:0.35;}.cls-2{fill:#f2f2f2;}.cls-3{fill:#00599c;}.cls-4{fill:#333;}.cls-5{fill:#fff;}</style></defs><path class="cls-1" d="M29,168A25,25,0,0,1,4,143V29A25,25,0,0,1,29,4H143a25,25,0,0,1,25,25V143a25,25,0,0,1-25,25Z"/><path class="cls-2" d="M25,164A25,25,0,0,1,0,139V25A25,25,0,0,1,25,0H139a25,25,0,0,1,25,25V139a25,25,0,0,1-25,25Z"/><path class="cls-3" d="M13,139V25A12,12,0,0,1,25,13H139a12,12,0,0,1,12,12V139a12,12,0,0,1-12,12H25A12,12,0,0,1,13,139Z"/><path class="cls-4" d="M139,154H25a15,15,0,0,1-15-15V25A15,15,0,0,1,25,10H139a15,15,0,0,1,15,15V139A15,15,0,0,1,139,154ZM25,16a9,9,0,0,0-9,9V139a9,9,0,0,0,9,9H139a9,9,0,0,0,9-9V25a9,9,0,0,0-9-9Z"/><path class="cls-5" d="M125.17,52.42,86.73,30.81a9.76,9.76,0,0,0-9.46,0L38.83,52.42a9.28,9.28,0,0,0-4.77,8.06v43.21a9.28,9.28,0,0,0,4.77,8.06l38.44,21.61a9.71,9.71,0,0,0,9.46,0l38.44-21.61a9.28,9.28,0,0,0,4.77-8.06V60.48A9.28,9.28,0,0,0,125.17,52.42ZM82,109.48a27.4,27.4,0,1,1,21.78-44l-10,5.79a16,16,0,1,0,0,21.56l10,5.78A27.21,27.21,0,0,1,82,109.48Zm27.39-25.11h-4.56v4.56h-4.57V84.37H95.7V79.8h4.56V75.24h4.57V79.8h4.56Zm16,0h-4.56v4.56h-4.57V84.37h-4.56V79.8h4.56V75.24h4.57V79.8h4.56Z"/></svg>