<svg id="Layer_1" data-name="Layer 1" xmlns="http://www.w3.org/2000/svg" viewBox="0 0 90 90"><defs><style>.cls-1{fill:#010101;isolation:isolate;opacity:0.35;}.cls-2{fill:#f3f3f3;}.cls-3{fill:#00599c;}.cls-4{fill:#333;}.cls-5{fill:#fff;}</style></defs><circle class="cls-1" cx="46" cy="46" r="44"/><circle class="cls-2" cx="44" cy="44" r="44"/><path class="cls-3" d="M44,6.5A37.5,37.5,0,1,0,81.5,44,37.5,37.5,0,0,0,44,6.5Z"/><path class="cls-4" d="M44,83A39,39,0,1,1,83,44,39.05,39.05,0,0,1,44,83ZM44,8A36,36,0,1,0,80,44,36,36,0,0,0,44,8Z"/><path class="cls-5" d="M63.91,32,47.07,22.54a4.24,4.24,0,0,0-4.14,0L26.09,32A4.07,4.07,0,0,0,24,35.53V54.46A4,4,0,0,0,26.09,58l16.84,9.47a4.24,4.24,0,0,0,4.14,0L63.91,58A4,4,0,0,0,66,54.46V35.53A4.07,4.07,0,0,0,63.91,32ZM45,57a12,12,0,1,1,9.54-19.28l-4.38,2.54a7,7,0,1,0-.46,9.9c.16-.14.32-.3.46-.45l4.38,2.53A11.93,11.93,0,0,1,45,57ZM57,46H55v2H53V46H51V44h2V42h2v2h2Zm7,0H62v2H60V46H58V44h2V42h2v2h2Z"/></svg>