<svg id="Layer_1" data-name="Layer 1" xmlns="http://www.w3.org/2000/svg" viewBox="0 0 168 168"><defs><style>.cls-1{isolation:isolate;opacity:0.35;}.cls-2{fill:#f2f2f2;}.cls-3{fill:#546e7a;}.cls-4{fill:#333;}.cls-5{fill:#fff;}</style></defs><path class="cls-1" d="M29,168A25,25,0,0,1,4,143V29A25,25,0,0,1,29,4H143a25,25,0,0,1,25,25V143a25,25,0,0,1-25,25Z"/><path class="cls-2" d="M25,164A25,25,0,0,1,0,139V25A25,25,0,0,1,25,0H139a25,25,0,0,1,25,25V139a25,25,0,0,1-25,25Z"/><path class="cls-3" d="M13,139V25A12,12,0,0,1,25,13H139a12,12,0,0,1,12,12V139a12,12,0,0,1-12,12H25A12,12,0,0,1,13,139Z"/><path class="cls-4" d="M139,154H25a15,15,0,0,1-15-15V25A15,15,0,0,1,25,10H139a15,15,0,0,1,15,15V139A15,15,0,0,1,139,154ZM25,16a9,9,0,0,0-9,9V139a9,9,0,0,0,9,9H139a9,9,0,0,0,9-9V25a9,9,0,0,0-9-9Z"/><path class="cls-5" d="M82,29.5a9.64,9.64,0,0,0-4.72,1.23L38.84,52.34a9.25,9.25,0,0,0-4.77,8.06v43.2a9.25,9.25,0,0,0,4.77,8.06l38.44,21.61a9.67,9.67,0,0,0,9.44,0l38.44-21.6a9.28,9.28,0,0,0,4.77-8.07V60.4a9.25,9.25,0,0,0-4.77-8.06L86.72,30.73A9.64,9.64,0,0,0,82,29.5Zm0,25.11a27.23,27.23,0,0,1,21.78,10.81l-10,5.8a16,16,0,1,0,0,21.56l10,5.8A27.38,27.38,0,1,1,82,54.61Zm22.83,16h4.56v4.56H114V70.59h4.56v4.56h4.57v4.57h-4.57v4.56h4.57v4.57h-4.57v4.56H114V88.85h-4.57v4.56h-4.56V88.85h-4.57V84.28h4.57V79.72h-4.57V75.15h4.57Zm4.56,9.13v4.56H114V79.72Z"/></svg>