<svg id="Layer_1" data-name="Layer 1" xmlns="http://www.w3.org/2000/svg" viewBox="0 0 90 90"><defs><style>.cls-1{fill:#010101;isolation:isolate;opacity:0.35;}.cls-2{fill:#f3f3f3;}.cls-3{fill:#546f7a;}.cls-4{fill:#333;}.cls-5{fill:#fff;}</style></defs><circle class="cls-1" cx="46" cy="46" r="44"/><circle class="cls-2" cx="44" cy="44" r="44"/><path class="cls-3" d="M44,6.5A37.5,37.5,0,1,0,81.5,44,37.5,37.5,0,0,0,44,6.5Z"/><path class="cls-4" d="M44,83A39,39,0,1,1,83,44,39.05,39.05,0,0,1,44,83ZM44,8A36,36,0,1,0,80,44,36,36,0,0,0,44,8Z"/><path class="cls-5" d="M45,21.8a4.28,4.28,0,0,0-2.07.53L26.09,31.8A4.07,4.07,0,0,0,24,35.33V54.26a4.07,4.07,0,0,0,2.09,3.53l16.84,9.47a4.24,4.24,0,0,0,4.14,0l16.84-9.47A4.07,4.07,0,0,0,66,54.26V35.33a4.07,4.07,0,0,0-2.09-3.53L47.07,22.33A4.28,4.28,0,0,0,45,21.8Zm0,11a11.91,11.91,0,0,1,9.54,4.73l-4.38,2.54A7,7,0,1,0,49.7,50c.16-.15.32-.3.46-.46l4.38,2.54A12,12,0,1,1,45,32.8Zm10,7h2v2h2v-2h2v2h2v2H61v2h2v2H61v2H59v-2H57v2H55v-2H53v-2h2v-2H53v-2h2Zm2,4v2h2v-2Z"/></svg>