<svg id="Layer_1" data-name="Layer 1" xmlns="http://www.w3.org/2000/svg" viewBox="0 0 90 90"><defs><style>.cls-1{fill:#010101;isolation:isolate;opacity:0.35;}.cls-2{fill:#f3f3f3;}.cls-3{fill:#1473b6;}.cls-4{fill:#333;}.cls-5{fill:#fff;}</style></defs><circle class="cls-1" cx="46" cy="46" r="44"/><circle class="cls-2" cx="44" cy="44" r="44"/><path class="cls-3" d="M44,6.5A37.5,37.5,0,1,0,81.5,44,37.5,37.5,0,0,0,44,6.5Z"/><path class="cls-4" d="M44,83A39,39,0,1,1,83,44,39.05,39.05,0,0,1,44,83ZM44,8A36,36,0,1,0,80,44,36,36,0,0,0,44,8Z"/><path class="cls-5" d="M24.87,22H65.13L61.46,63.33,45,68,28.54,63.33Zm32.76,8.46H32.37l.41,5h19.4l-.49,5.21H39l.44,4.93H51.28l-.7,6.75L45,53.91l-5.67-1.55-.36-4H34l.56,7.38L45,59,55.3,56Z"/></svg>