<svg id="Layer_1" data-name="Layer 1" xmlns="http://www.w3.org/2000/svg" viewBox="0 0 168 168"><defs><style>.cls-1{isolation:isolate;opacity:0.35;}.cls-2{fill:#f2f2f2;}.cls-3{fill:#1572b6;}.cls-4{fill:#333;}.cls-5{fill:#fff;}</style></defs><path class="cls-1" d="M29,168A25,25,0,0,1,4,143V29A25,25,0,0,1,29,4H143a25,25,0,0,1,25,25V143a25,25,0,0,1-25,25Z"/><path class="cls-2" d="M25,164A25,25,0,0,1,0,139V25A25,25,0,0,1,25,0H139a25,25,0,0,1,25,25V139a25,25,0,0,1-25,25Z"/><path class="cls-3" d="M13,139V25A12,12,0,0,1,25,13H139a12,12,0,0,1,12,12V139a12,12,0,0,1-12,12H25A12,12,0,0,1,13,139Z"/><path class="cls-4" d="M139,154H25a15,15,0,0,1-15-15V25A15,15,0,0,1,25,10H139a15,15,0,0,1,15,15V139A15,15,0,0,1,139,154ZM25,16a9,9,0,0,0-9,9V139a9,9,0,0,0,9,9H139a9,9,0,0,0,9-9V25a9,9,0,0,0-9-9Z"/><path class="cls-5" d="M36.06,29.5h91.88l-8.36,94.34L81.9,134.5,44.43,123.83Zm74.77,19.31-57.66,0,.93,11.47H98.4L97.28,72.16h-29l1,11.25H96.33l-1.6,15.42L82,102.34,69.06,98.8l-.82-9.23H56.82l1.27,16.86L82,113.89l23.51-6.7,5.32-58.38Z"/></svg>