<svg id="Layer_1" data-name="Layer 1" xmlns="http://www.w3.org/2000/svg" viewBox="0 0 40 40"><defs><style>.cls-1{fill:#0175c2;}.cls-2{fill:#fff;}</style></defs><path class="cls-1" d="M20,0A20,20,0,1,0,40,20,20,20,0,0,0,20,0Z"/><path class="cls-2" d="M13.09,13.09l6.63-3.31A2.68,2.68,0,0,1,21,9.5a3.3,3.3,0,0,1,1.47.69l8,8v8.56H26.77V30.5h-8.7l-7.88-7.87A2.48,2.48,0,0,1,9.5,21a2.77,2.77,0,0,1,.28-1Zm.6.6V24a1.61,1.61,0,0,0,.43,1.32l4.31,4.31h7.46V25.9Zm10.54-.6c-.78-.78-1.58-1.55-2.39-2.31a1.26,1.26,0,0,0-.94-.4,3.07,3.07,0,0,0-.76.17l-5.09,2.54Z"/></svg>