<svg id="Layer_1" data-name="Layer 1" xmlns="http://www.w3.org/2000/svg" viewBox="0 0 40 40"><defs><style>.cls-1{fill:#fff;}</style></defs><path d="M20,0A20,20,0,1,0,40,20,20,20,0,0,0,20,0Z"/><path d="M20.93,19.24s-6.85,2.18-8.21,2.2a6.68,6.68,0,0,0,.36,1.94,30.91,30.91,0,0,0,6-1.41c2.24-1.18,1.51-1.78,6.94-3.67a4,4,0,0,0-.52-1.14A17,17,0,0,1,20.93,19.24Z"/><path class="cls-1" d="M13.15,23.36a8.59,8.59,0,0,1-.43-1.7s-3.6,1.56-3.19,4.17a1.71,1.71,0,0,0,1.68,1.44,5.69,5.69,0,0,0,3.17-1.19c1.61-1.12,2.47-2.2,5-4.27A27.34,27.34,0,0,1,13.15,23.36Z"/><path class="cls-1" d="M12.72,21.44s-1.39-5.15,2-7.11a15.85,15.85,0,0,1,4.47-1.51c1.1-.15,3.71-.61,5,1.6a14.61,14.61,0,0,1,1.26,2.74C24.13,18.69,14.27,21.34,12.72,21.44Z"/><path class="cls-1" d="M21.54,20.59A38.66,38.66,0,0,1,26.91,20c2.44-.1,3.84-1.11,3.49-1.63S27.41,16.27,21.54,20.59Z"/><path class="cls-1" d="M30.48,18.32s-3.65-4.16-15.21,6.89c-2.59,2.06-5,2.42-5.65.91.49,1.44,1.91,1.41,3.65.83,2.29-.76,5.45-3.79,5.85-4.08,3.13-2.34,8.48-6.1,11.32-4.2A.48.48,0,0,0,30.48,18.32Z"/></svg>