<?xml version="1.0" encoding="utf-8"?>
<!-- Generator: Adobe Illustrator 26.1.0, SVG Export Plug-In . SVG Version: 6.00 Build 0)  -->
<svg version="1.1" id="Layer_1" xmlns="http://www.w3.org/2000/svg" xmlns:xlink="http://www.w3.org/1999/xlink" x="0px" y="0px"
	 viewBox="0 0 90 90" style="enable-background:new 0 0 90 90;" xml:space="preserve">
<style type="text/css">
	.st0{opacity:0.35;fill:#010101;enable-background:new    ;}
	.st1{fill:#F3F3F3;}
	.st2{fill:#082E20;}
	.st3{fill:#333333;}
	.st4{fill:#FFFFFF;}
</style>
<circle class="st0" cx="46" cy="46" r="44"/>
<circle class="st1" cx="44" cy="44" r="44"/>
<path class="st2" d="M44,6.5C23.3,6.5,6.5,23.3,6.5,44S23.3,81.5,44,81.5S81.5,64.7,81.5,44S64.7,6.5,44,6.5z"/>
<path class="st3" d="M44,83C22.5,83,5,65.5,5,44S22.5,5,44,5s39,17.5,39,39C83,65.5,65.5,83,44,83z M44,8C24.1,8,8,24.1,8,44
	s16.1,36,36,36s36-16.1,36-36S63.9,8,44,8z"/>
<path class="st4" d="M43.6,22v12.5c-1.2-0.3-2.4-0.4-3.6-0.4c-6.7,0-12.9,3.2-12.9,12.1c0,10.7,8.4,12.1,14.1,12.1
	c3.3,0,6.5-0.3,9.7-0.9V22H43.6z M55.7,22v7.3h7.3V22H55.7z M55.7,34.1v21.1c0,3.7-2.2,7.5-7.3,9.7l6.9,3.1c7-2.4,7.6-10.4,7.6-12.8
	V34.1H55.7z M41.1,40.3c0.8,0,1.7,0.1,2.5,0.3V52c-0.8,0.2-1.7,0.3-2.5,0.3c-3.2,0-6.2-1-6.2-6.1S37.9,40.3,41.1,40.3z"/>
</svg>
