<svg id="Layer_1" data-name="Layer 1" xmlns="http://www.w3.org/2000/svg" viewBox="0 0 168 168"><defs><style>.cls-1{isolation:isolate;opacity:0.35;}.cls-2{fill:#f2f2f2;}.cls-3{fill:#092e20;}.cls-4{fill:#333;}.cls-5{fill:#fff;}</style></defs><path class="cls-1" d="M29,168A25,25,0,0,1,4,143V29A25,25,0,0,1,29,4H143a25,25,0,0,1,25,25V143a25,25,0,0,1-25,25Z"/><path class="cls-2" d="M25,164A25,25,0,0,1,0,139V25A25,25,0,0,1,25,0H139a25,25,0,0,1,25,25V139a25,25,0,0,1-25,25Z"/><path class="cls-3" d="M13,139V25A12,12,0,0,1,25,13H139a12,12,0,0,1,12,12V139a12,12,0,0,1-12,12H25A12,12,0,0,1,13,139Z"/><path class="cls-4" d="M139,154H25a15,15,0,0,1-15-15V25A15,15,0,0,1,25,10H139a15,15,0,0,1,15,15V139A15,15,0,0,1,139,154ZM25,16a9,9,0,0,0-9,9V139a9,9,0,0,0,9,9H139a9,9,0,0,0,9-9V25a9,9,0,0,0-9-9Z"/><path class="cls-5" d="M78.71,29.5V58c-1.92-.78-6-.87-8.09-.87-15.35,0-29.55,7.22-29.55,27.63,0,24.44,19.24,27.64,32.12,27.64,5.08,0,16.58-.5,22.11-2.1V29.5Zm27.64,0V46.08h16.58V29.5Zm0,27.64v48.09c0,8.38-5.1,17.1-16.58,22.11l15.8,7.16c16.07-5.53,17.36-23.74,17.36-29.27V57.14ZM73,71.24a26.53,26.53,0,0,1,5.69.76V98a26.6,26.6,0,0,1-5.69.78c-7.24,0-14.26-2.29-14.26-14S65.78,71.24,73,71.24Z"/></svg>