<?xml version="1.0" encoding="utf-8"?>
<!-- Generator: Adobe Illustrator 26.1.0, SVG Export Plug-In . SVG Version: 6.00 Build 0)  -->
<svg version="1.1" id="Layer_1" xmlns="http://www.w3.org/2000/svg" xmlns:xlink="http://www.w3.org/1999/xlink" x="0px" y="0px"
	 viewBox="0 0 90 90" style="enable-background:new 0 0 90 90;" xml:space="preserve">
<style type="text/css">
	.st0{opacity:0.35;fill:#010101;enable-background:new    ;}
	.st1{fill:#F3F3F3;}
	.st2{fill:#554DA0;}
	.st3{fill:#333333;}
	.st4{fill:#FFFFFF;}
</style>
<circle class="st0" cx="46" cy="46" r="44"/>
<circle class="st1" cx="44" cy="44" r="44"/>
<path class="st2" d="M44,6.5C23.3,6.5,6.5,23.3,6.5,44S23.3,81.5,44,81.5S81.5,64.7,81.5,44S64.7,6.5,44,6.5z"/>
<path class="st3" d="M44,83C22.5,83,5,65.5,5,44S22.5,5,44,5s39,17.5,39,39C83,65.5,65.5,83,44,83z M44,8C24.1,8,8,24.1,8,44
	s16.1,36,36,36s36-16.1,36-36S63.9,8,44,8z"/>
<path class="st4" d="M68,38.8h-4.7v14.5h-2.7V38.8h-4.7v-2.4H68V38.8z M54.9,53.3h-9.2V36.4h8.9v2.4h-6.1v4.8H54v2.4h-5.6v5h6.5
	L54.9,53.3z M42,53.3h-3l-7.9-12.4c-0.2-0.3-0.4-0.6-0.5-1h-0.1c0.1,0.8,0.1,1.5,0.1,2.3v11.1H28V36.4h3.2l7.6,12.1
	c0.2,0.3,0.4,0.7,0.6,1l0,0c-0.1-0.8-0.1-1.5-0.1-2.3V36.4H42V53.3z M25.3,52c0,0.9-0.8,1.6-1.6,1.6c0,0,0,0,0,0l0,0
	c-0.9,0-1.6-0.7-1.7-1.6c0,0,0,0,0,0l0,0c0.1-0.9,0.9-1.6,1.8-1.5C24.6,50.5,25.3,51.2,25.3,52z"/>
</svg>
