<svg id="Layer_1" data-name="Layer 1" xmlns="http://www.w3.org/2000/svg" viewBox="0 0 168 168"><defs><style>.cls-1{isolation:isolate;opacity:0.35;}.cls-2{fill:#f2f2f2;}.cls-3{fill:#512bd4;}.cls-4{fill:#333;}.cls-5{fill:#fff;}</style></defs><path class="cls-1" d="M29,168A25,25,0,0,1,4,143V29A25,25,0,0,1,29,4H143a25,25,0,0,1,25,25V143a25,25,0,0,1-25,25Z"/><path class="cls-2" d="M25,164A25,25,0,0,1,0,139V25A25,25,0,0,1,25,0H139a25,25,0,0,1,25,25V139a25,25,0,0,1-25,25Z"/><path class="cls-3" d="M13,139V25A12,12,0,0,1,25,13H139a12,12,0,0,1,12,12V139a12,12,0,0,1-12,12H25A12,12,0,0,1,13,139Z"/><path class="cls-4" d="M139,154H25a15,15,0,0,1-15-15V25A15,15,0,0,1,25,10H139a15,15,0,0,1,15,15V139A15,15,0,0,1,139,154ZM25,16a9,9,0,0,0-9,9V139a9,9,0,0,0,9,9H139a9,9,0,0,0,9-9V25a9,9,0,0,0-9-9Z"/><path class="cls-5" d="M134.5,67.87H123.7V101h-6.23V67.87H106.7V62.44h27.8Zm-30,33.1H83.43V62.44h20.26v5.43h-14V78.78h12.92v5.4H89.66V95.57h14.86Zm-29.35,0H68.36l-18-28.32a13,13,0,0,1-1.13-2.23h-.15a40.65,40.65,0,0,1,.21,5.29V101h-6V62.44h7.26L67.92,90.09q1.1,1.72,1.41,2.37h.11a34.19,34.19,0,0,1-.27-5.19V62.44h6Zm-38.07-3a3.71,3.71,0,0,1-3.8,3.63h0a3.71,3.71,0,0,1-3.8-3.63h0a3.8,3.8,0,0,1,7.6,0Z"/></svg>