<svg id="Layer_1" data-name="Layer 1" xmlns="http://www.w3.org/2000/svg" viewBox="0 0 168 168"><defs><style>.cls-1{isolation:isolate;opacity:0.35;}.cls-2{fill:#f2f2f2;}.cls-3{fill:#f05032;}.cls-4{fill:#333;}.cls-5{fill:#fff;}</style></defs><path class="cls-1" d="M29,168A25,25,0,0,1,4,143V29A25,25,0,0,1,29,4H143a25,25,0,0,1,25,25V143a25,25,0,0,1-25,25Z"/><path class="cls-2" d="M25,164A25,25,0,0,1,0,139V25A25,25,0,0,1,25,0H139a25,25,0,0,1,25,25V139a25,25,0,0,1-25,25Z"/><path class="cls-3" d="M13,139V25A12,12,0,0,1,25,13H139a12,12,0,0,1,12,12V139a12,12,0,0,1-12,12H25A12,12,0,0,1,13,139Z"/><path class="cls-4" d="M139,154H25a15,15,0,0,1-15-15V25A15,15,0,0,1,25,10H139a15,15,0,0,1,15,15V139A15,15,0,0,1,139,154ZM25,16a9,9,0,0,0-9,9V139a9,9,0,0,0,9,9H139a9,9,0,0,0,9-9V25a9,9,0,0,0-9-9Z"/><path class="cls-5" d="M132.51,77.32,86.67,31.48a6.77,6.77,0,0,0-9.57,0L67.6,41,79.67,53.07A8,8,0,0,1,89.85,63.31L101.48,75a8,8,0,1,1-4.83,4.56L85.76,68.68V97.23a7.83,7.83,0,0,1,2.14,1.52,8.06,8.06,0,1,1-11.42,0A8.25,8.25,0,0,1,79.13,97V68.15a7.88,7.88,0,0,1-2.62-1.75,8,8,0,0,1-1.74-8.79L62.91,45.69,31.47,77.1a6.8,6.8,0,0,0,0,9.58l45.85,45.84a6.76,6.76,0,0,0,9.56,0l45.63-45.63a6.75,6.75,0,0,0,0-9.57"/></svg>