<?xml version="1.0" encoding="utf-8"?>
<!-- Generator: Adobe Illustrator 26.1.0, SVG Export Plug-In . SVG Version: 6.00 Build 0)  -->
<svg version="1.1" id="Layer_1" xmlns="http://www.w3.org/2000/svg" xmlns:xlink="http://www.w3.org/1999/xlink" x="0px" y="0px"
	 viewBox="0 0 90 90" style="enable-background:new 0 0 90 90;" xml:space="preserve">
<style type="text/css">
	.st0{opacity:0.35;fill:#010101;enable-background:new    ;}
	.st1{fill:#F3F3F3;}
	.st2{fill:#F05131;}
	.st3{fill:#333333;}
	.st4{fill:#FFFFFF;}
</style>
<circle class="st0" cx="46" cy="46" r="44"/>
<circle class="st1" cx="44" cy="44" r="44"/>
<path class="st2" d="M44,6.5C23.3,6.5,6.5,23.3,6.5,44S23.3,81.5,44,81.5S81.5,64.7,81.5,44S64.7,6.5,44,6.5z"/>
<path class="st3" d="M44,83C22.5,83,5,65.5,5,44S22.5,5,44,5s39,17.5,39,39C83,65.5,65.5,83,44,83z M44,8C24.1,8,8,24.1,8,44
	s16.1,36,36,36s36-16.1,36-36S63.9,8,44,8z"/>
<path class="st4" d="M67.1,43L47,22.9c-1.2-1.1-3-1.1-4.2,0L38.7,27l5.3,5.3c1.8-0.6,3.8,0.3,4.5,2.1c0.3,0.8,0.3,1.6,0,2.3l5.1,5.1
	c1.8-0.6,3.8,0.3,4.5,2.2c0.6,1.8-0.3,3.8-2.2,4.5s-3.8-0.3-4.5-2.2c-0.3-0.8-0.3-1.7,0.1-2.5l-4.8-4.8v12.5
	c0.3,0.2,0.7,0.4,0.9,0.7c1.4,1.4,1.4,3.6,0,5c-1.4,1.4-3.6,1.4-5,0c-1.4-1.4-1.4-3.6,0-5c0.3-0.3,0.7-0.6,1.2-0.8V38.9
	c-0.4-0.2-0.8-0.4-1.1-0.8c-1-1-1.3-2.5-0.8-3.8l-5.2-5.2L22.8,42.9c-1.1,1.2-1.1,3,0,4.2L43,67.1c1.2,1.1,3,1.1,4.2,0l20-20
	C68.3,46,68.3,44.1,67.1,43L67.1,43"/>
</svg>
