<svg id="Layer_1" data-name="Layer 1" xmlns="http://www.w3.org/2000/svg" viewBox="0 0 40 40"><defs><style>.cls-1{fill:#f05032;}.cls-2{fill:#fff;}</style></defs><path class="cls-1" d="M20,0A20,20,0,1,0,40,20,20,20,0,0,0,20,0Z"/><path class="cls-2" d="M31.55,18.93,21.07,8.45a1.56,1.56,0,0,0-2.19,0l-2.17,2.18,2.76,2.76a1.84,1.84,0,0,1,2.33,2.34l2.65,2.66a1.84,1.84,0,1,1-1.1,1L20.86,17v6.52a1.84,1.84,0,1,1-2.12.35,2,2,0,0,1,.6-.41V16.84a2.14,2.14,0,0,1-.6-.41,1.83,1.83,0,0,1-.39-2L15.64,11.7,8.45,18.88a1.56,1.56,0,0,0,0,2.19L18.93,31.55a1.56,1.56,0,0,0,2.19,0L31.55,21.12a1.56,1.56,0,0,0,0-2.19"/></svg>