<svg id="Layer_1" data-name="Layer 1" xmlns="http://www.w3.org/2000/svg" viewBox="0 0 168 168"><defs><style>.cls-1{isolation:isolate;opacity:0.35;}.cls-2{fill:#f2f2f2;}.cls-3{fill:#59666c;}.cls-4{fill:#333;}.cls-5{fill:#fff;}</style></defs><path class="cls-1" d="M29,168A25,25,0,0,1,4,143V29A25,25,0,0,1,29,4H143a25,25,0,0,1,25,25V143a25,25,0,0,1-25,25Z"/><path class="cls-2" d="M25,164A25,25,0,0,1,0,139V25A25,25,0,0,1,25,0H139a25,25,0,0,1,25,25V139a25,25,0,0,1-25,25Z"/><path class="cls-3" d="M13,139V25A12,12,0,0,1,25,13H139a12,12,0,0,1,12,12V139a12,12,0,0,1-12,12H25A12,12,0,0,1,13,139Z"/><path class="cls-4" d="M139,154H25a15,15,0,0,1-15-15V25A15,15,0,0,1,25,10H139a15,15,0,0,1,15,15V139A15,15,0,0,1,139,154ZM25,16a9,9,0,0,0-9,9V139a9,9,0,0,0,9,9H139a9,9,0,0,0,9-9V25a9,9,0,0,0-9-9Z"/><path class="cls-5" d="M53,29.5l20.19,35h39.16l-20.21-35H53Zm-1.88,1.08L31.51,64.47l20.19,35,19.58-34ZM112.3,64.49l-19.57,34,20.19,35,19.57-33.88Zm-21.46,35H51.69l20.2,35H111l-20.19-35Z"/></svg>