<?xml version="1.0" encoding="utf-8"?>
<!-- Generator: Adobe Illustrator 26.1.0, SVG Export Plug-In . SVG Version: 6.00 Build 0)  -->
<svg version="1.1" id="Layer_1" xmlns="http://www.w3.org/2000/svg" xmlns:xlink="http://www.w3.org/1999/xlink" x="0px" y="0px"
	 viewBox="0 0 90 90" style="enable-background:new 0 0 90 90;" xml:space="preserve">
<style type="text/css">
	.st0{opacity:0.35;fill:#010101;enable-background:new    ;}
	.st1{fill:#F3F3F3;}
	.st2{fill:#E35026;}
	.st3{fill:#333333;}
	.st4{fill:#FFFFFF;}
</style>
<circle class="st0" cx="46" cy="46" r="44"/>
<circle class="st1" cx="44" cy="44" r="44"/>
<path class="st2" d="M44,6.5C23.3,6.5,6.5,23.3,6.5,44S23.3,81.5,44,81.5S81.5,64.7,81.5,44S64.7,6.5,44,6.5z"/>
<path class="st3" d="M44,83C22.5,83,5,65.5,5,44S22.5,5,44,5s39,17.5,39,39C83,65.5,65.5,83,44,83z M44,8C24.1,8,8,24.1,8,44
	s16.1,36,36,36s36-16.1,36-36S63.9,8,44,8z"/>
<path class="st4" d="M24.9,22h40.3l-3.7,41.3L45,68l-16.5-4.7L24.9,22z M38.3,40.7l-0.4-5.2h19.3l0.4-5H32.4l1.3,15.4h17.5l-0.6,6.6
	L45,53.9l-5.7-1.5l-0.4-4h-5l0.6,8L45,59.1l10.3-2.8l1.4-15.6H38.3z"/>
</svg>
