<svg id="Layer_1" data-name="Layer 1" xmlns="http://www.w3.org/2000/svg" viewBox="0 0 50 50"><defs><style>.cls-1{fill:#007396;}.cls-2{fill:#fff;}</style></defs><circle class="cls-1" cx="25" cy="25" r="25"/><path class="cls-2" d="M19.75,35.93s-1.53.89,1.09,1.19a22.49,22.49,0,0,0,8.28-.35,14.35,14.35,0,0,0,2.2,1.08c-7.83,3.35-17.72-.2-11.57-1.92m-1-4.37s-1.71,1.26.91,1.54a32.64,32.64,0,0,0,10.69-.52,4.8,4.8,0,0,0,1.64,1c-9.46,2.76-20,.21-13.24-2m8.07-7.43c1.93,2.22-.51,4.22-.51,4.22s4.9-2.53,2.65-5.7c-2.1-2.95-3.71-4.42,5-9.48,0,0-13.69,3.42-7.15,11m10.36,15s1.13.94-1.25,1.66c-4.52,1.37-18.81,1.78-22.78.05-1.43-.62,1.25-1.48,2.09-1.66a5.67,5.67,0,0,1,1.38-.16c-1.59-1.12-10.26,2.2-4.4,3.15,16,2.59,29.1-1.17,25-3M20.49,27s-7.27,1.72-2.58,2.35a54,54,0,0,0,9.62-.1c3-.26,6-.8,6-.8a13.47,13.47,0,0,0-1.83,1c-7.38,1.94-21.64,1-17.54-.95A13.82,13.82,0,0,1,20.49,27m13,7.29c7.5-3.9,4-7.65,1.61-7.14a5.39,5.39,0,0,0-.86.23,1.36,1.36,0,0,1,.64-.5c4.8-1.68,8.48,5-1.54,7.6a.74.74,0,0,0,.15-.19M29,5s4.16,4.16-3.94,10.55c-6.49,5.13-1.48,8.05,0,11.39-3.79-3.42-6.57-6.43-4.71-9.23C23.09,13.6,30.68,11.6,29,5M21.22,44.87c7.21.47,18.27-.25,18.53-3.66,0,0-.5,1.29-6,2.32a59.19,59.19,0,0,1-18.23.28s.92.76,5.65,1.06"/></svg>