<svg id="Layer_1" data-name="Layer 1" xmlns="http://www.w3.org/2000/svg" viewBox="0 0 40 40"><defs><style>.cls-1{fill:#f7df1e;}.cls-2{fill:#fff;}</style></defs><path class="cls-1" d="M20,0A20,20,0,1,0,40,20,20,20,0,0,0,20,0Z"/><rect class="cls-2" x="9.5" y="9.5" width="21" height="21"/><path class="cls-1" d="M15,27.05l1.61-1c.31.55.59,1,1.27,1S19,26.84,19,25.85V19.14h2v6.74a2.69,2.69,0,0,1-2.95,3,3.08,3.08,0,0,1-3-1.81"/><path class="cls-1" d="M22,26.84l1.61-.93a2.13,2.13,0,0,0,1.94,1.19c.82,0,1.34-.41,1.34-1s-.54-.91-1.44-1.31L25,24.61c-1.42-.61-2.37-1.37-2.37-3A2.64,2.64,0,0,1,25.48,19a2.92,2.92,0,0,1,2.81,1.58l-1.54,1a1.33,1.33,0,0,0-1.27-.84.85.85,0,0,0-.94.84c0,.59.37.83,1.21,1.2l.5.21c1.67.72,2.62,1.45,2.62,3.1s-1.4,2.75-3.27,2.75a3.78,3.78,0,0,1-3.6-2"/></svg>