<svg id="Layer_1" data-name="Layer 1" xmlns="http://www.w3.org/2000/svg" viewBox="0 0 40 40"><defs><style>.cls-1{fill:#007396;}.cls-2{fill:#fff;}</style></defs><path class="cls-1" d="M20,0A20,20,0,1,0,40,20,20,20,0,0,0,20,0Z"/><path class="cls-2" d="M16.85,26.56s-.92.53.65.71a13.58,13.58,0,0,0,5-.21,9,9,0,0,0,1.32.65c-4.69,2-10.63-.12-6.94-1.15m-.57-2.63s-1,.76.54.93a19.5,19.5,0,0,0,6.41-.31,2.88,2.88,0,0,0,1,.6c-5.68,1.66-12,.13-7.94-1.22m4.84-4.45A1.76,1.76,0,0,1,20.81,22s2.94-1.52,1.59-3.42-2.23-2.65,3-5.69c0,0-8.22,2-4.29,6.58m6.21,9s.68.56-.75,1c-2.71.82-11.28,1.06-13.67,0-.85-.37.75-.89,1.26-1a3.42,3.42,0,0,1,.83-.09c-1-.67-6.16,1.31-2.65,1.88,9.58,1.56,17.47-.7,15-1.82m-10-7.29s-4.36,1-1.54,1.41a32.19,32.19,0,0,0,5.77-.06c1.8-.15,3.62-.48,3.62-.48a8.3,8.3,0,0,0-1.1.59c-4.43,1.17-13,.62-10.52-.57a8.31,8.31,0,0,1,3.77-.89m7.83,4.37c4.5-2.34,2.42-4.58,1-4.28a2.77,2.77,0,0,0-.51.14.81.81,0,0,1,.38-.3c2.88-1,5.09,3-.92,4.56a.35.35,0,0,0,.09-.12M22.4,8s2.5,2.49-2.36,6.33c-3.9,3.08-.89,4.83,0,6.84-2.28-2.06-3.95-3.86-2.83-5.54C18.86,13.16,23.41,12,22.4,8M17.73,31.92c4.33.28,11-.15,11.12-2.19,0,0-.3.77-3.57,1.39a35.85,35.85,0,0,1-10.94.17s.55.45,3.39.63"/></svg>