<svg id="Layer_1" data-name="Layer 1" xmlns="http://www.w3.org/2000/svg" viewBox="0 0 168 168"><defs><style>.cls-1{isolation:isolate;opacity:0.35;}.cls-2{fill:#f2f2f2;}.cls-3{fill:#007396;}.cls-4{fill:#333;}.cls-5{fill:#fff;}</style></defs><path class="cls-1" d="M29,168A25,25,0,0,1,4,143V29A25,25,0,0,1,29,4H143a25,25,0,0,1,25,25V143a25,25,0,0,1-25,25Z"/><path class="cls-2" d="M25,164A25,25,0,0,1,0,139V25A25,25,0,0,1,25,0H139a25,25,0,0,1,25,25V139a25,25,0,0,1-25,25Z"/><path class="cls-3" d="M13,139V25A12,12,0,0,1,25,13H139a12,12,0,0,1,12,12V139a12,12,0,0,1-12,12H25A12,12,0,0,1,13,139Z"/><path class="cls-4" d="M139,154H25a15,15,0,0,1-15-15V25A15,15,0,0,1,25,10H139a15,15,0,0,1,15,15V139A15,15,0,0,1,139,154ZM25,16a9,9,0,0,0-9,9V139a9,9,0,0,0,9,9H139a9,9,0,0,0,9-9V25a9,9,0,0,0-9-9Z"/><path class="cls-5" d="M68.22,110.7s-4,2.34,2.86,3.13c8.32,1,12.57.81,21.74-.93a37.9,37.9,0,0,0,5.78,2.83c-20.56,8.81-46.52-.52-30.38-5M65.71,99.21s-4.5,3.33,2.37,4c8.89.91,15.91,1,28.06-1.35a12.58,12.58,0,0,0,4.31,2.64c-24.84,7.26-52.53.57-34.74-5.33M86.88,79.7c5.07,5.84-1.33,11.09-1.33,11.09s12.86-6.65,7-15C87,68.08,82.76,64.23,105.66,51c0,0-35.94,9-18.78,28.75m27.19,39.51s3,2.44-3.27,4.33c-11.86,3.6-49.38,4.68-59.8.15-3.75-1.64,3.28-3.9,5.49-4.37a14.34,14.34,0,0,1,3.62-.41c-4.17-2.93-26.94,5.77-11.57,8.26,41.92,6.79,76.4-3.06,65.53-8M70.15,87.29s-19.08,4.54-6.75,6.18c5.2.7,15.58.54,25.24-.27,7.9-.66,15.83-2.09,15.83-2.09a32.85,32.85,0,0,0-4.8,2.57c-19.38,5.1-56.82,2.73-46-2.48,9.11-4.4,16.52-3.91,16.52-3.91m34.23,19.14c19.7-10.24,10.6-20.08,4.24-18.75a15.44,15.44,0,0,0-2.25.61,3.52,3.52,0,0,1,1.68-1.3c12.58-4.42,22.25,13-4.06,20a1.64,1.64,0,0,0,.39-.52M92.51,29.5s10.91,10.91-10.35,27.69c-17,13.47-3.89,21.14,0,29.91-10-9-17.25-16.88-12.35-24.23,7.19-10.8,27.11-16,22.71-33.37M72.09,134.17c18.91,1.21,47.94-.67,48.63-9.62,0,0-1.32,3.39-15.63,6.09-16.13,3-36,2.68-47.85.73,0,0,2.42,2,14.85,2.8"/></svg>