<svg id="Layer_1" data-name="Layer 1" xmlns="http://www.w3.org/2000/svg" viewBox="0 0 90 90"><defs><style>.cls-1{fill:#010101;isolation:isolate;opacity:0.35;}.cls-2{fill:#f3f3f3;}.cls-3{fill:#f6df18;}.cls-4{fill:#333;}.cls-5{fill:#fff;}</style></defs><circle class="cls-1" cx="46" cy="46" r="44"/><circle class="cls-2" cx="44" cy="44" r="44"/><path class="cls-3" d="M44,6.5A37.5,37.5,0,1,0,81.5,44,37.5,37.5,0,0,0,44,6.5Z"/><path class="cls-4" d="M44,83A39,39,0,1,1,83,44,39.05,39.05,0,0,1,44,83ZM44,8A36,36,0,1,0,80,44,36,36,0,0,0,44,8Z"/><path class="cls-5" d="M22,22H68V68H22ZM64.23,57.05c-.33-2.1-1.7-3.87-5.75-5.51-1.41-.66-3-1.12-3.45-2.19A2.3,2.3,0,0,1,54.94,48c.29-1.24,1.76-1.61,2.91-1.27a3.16,3.16,0,0,1,1.87,1.73c2-1.31,2-1.31,3.36-2.16A7.75,7.75,0,0,0,62,44.81c-1.21-1.35-2.82-2-5.43-2L55.18,43a6.15,6.15,0,0,0-3.28,1.92A6,6,0,0,0,53,53.49c2.63,2,6.44,2.39,6.93,4.23.44,2.24-1.67,3-3.77,2.7a5.06,5.06,0,0,1-3.36-2.56l-3.51,2A8.27,8.27,0,0,0,50.84,62c3.33,3.37,11.67,3.19,13.16-1.93a6.5,6.5,0,0,0,.15-3.16ZM47,43.14H42.7V54.27c0,2.36.13,4.53-.26,5.2-.63,1.31-2.26,1.15-3,.92a3.76,3.76,0,0,1-1.59-1.64c-.12-.2-.21-.38-.25-.38l-3.5,2.16a6.88,6.88,0,0,0,2.54,2.91,8.43,8.43,0,0,0,6.13.77,5.37,5.37,0,0,0,3.47-2.7c1-1.79.77-4,.76-6.42V43.27Z"/></svg>