<svg id="Layer_1" data-name="Layer 1" xmlns="http://www.w3.org/2000/svg" viewBox="0 0 90 90"><defs><style>.cls-1{fill:#010101;isolation:isolate;opacity:0.35;}.cls-2{fill:#f3f3f3;}.cls-3{fill:#007396;}.cls-4{fill:#333;}.cls-5{fill:#fff;}</style></defs><circle class="cls-1" cx="46" cy="46" r="44"/><circle class="cls-2" cx="44" cy="44" r="44"/><path class="cls-3" d="M44,6.5A37.5,37.5,0,1,0,81.5,44,37.5,37.5,0,0,0,44,6.5Z"/><path class="cls-4" d="M44,83A39,39,0,1,1,83,44,39.05,39.05,0,0,1,44,83ZM44,8A36,36,0,1,0,80,44,36,36,0,0,0,44,8Z"/><path class="cls-5" d="M39,57.57s-1.75,1,1.26,1.37a25.78,25.78,0,0,0,9.52-.4,17.42,17.42,0,0,0,2.53,1.24c-9,3.86-20.38-.23-13.31-2.19m-1.1-5.05s-2,1.46,1,1.75a37.12,37.12,0,0,0,12.3-.59,5.54,5.54,0,0,0,1.88,1.16c-10.88,3.18-23,.25-15.22-2.34M47.14,44c2.22,2.56-.58,4.86-.58,4.86s5.63-2.91,3.06-6.57c-2.43-3.38-4.29-5.06,5.75-10.86,0,0-15.75,3.94-8.23,12.59M59.05,61.32s1.31,1.07-1.43,1.9c-5.2,1.58-21.64,2-26.2.07-1.64-.72,1.44-1.71,2.4-1.92a6.11,6.11,0,0,1,1.59-.18c-1.83-1.28-11.8,2.53-5.07,3.62,18.37,3,33.47-1.34,28.71-3.5m-19.24-14s-8.36,2-3,2.7a62.66,62.66,0,0,0,11.06-.11c3.46-.29,6.93-.92,6.93-.92a14.16,14.16,0,0,0-2.1,1.13C44.25,52.35,27.85,51.31,32.59,49a15.8,15.8,0,0,1,7.24-1.71m15,8.38c8.63-4.48,4.65-8.79,1.86-8.21a6.07,6.07,0,0,0-1,.27,1.54,1.54,0,0,1,.74-.57c5.51-1.94,9.75,5.69-1.78,8.76a.76.76,0,0,0,.17-.23M49.61,22s4.77,4.78-4.54,12.13c-7.45,5.9-1.7,9.26,0,13.1-4.38-3.94-7.56-7.39-5.41-10.61,3.15-4.73,11.88-7,10-14.62m-9,45.86c8.28.53,21-.3,21.3-4.22,0,0-.57,1.49-6.84,2.67a68.88,68.88,0,0,1-21,.32s1.06.87,6.51,1.23"/></svg>