<svg id="Layer_1" data-name="Layer 1" xmlns="http://www.w3.org/2000/svg" viewBox="0 0 168 168"><defs><style>.cls-1{isolation:isolate;opacity:0.35;}.cls-2{fill:#f2f2f2;}.cls-3{fill:#f7df1e;}.cls-4{fill:#333;}.cls-5{fill:#fff;}</style></defs><path class="cls-1" d="M29,168A25,25,0,0,1,4,143V29A25,25,0,0,1,29,4H143a25,25,0,0,1,25,25V143a25,25,0,0,1-25,25Z"/><path class="cls-2" d="M25,164A25,25,0,0,1,0,139V25A25,25,0,0,1,25,0H139a25,25,0,0,1,25,25V139a25,25,0,0,1-25,25Z"/><path class="cls-3" d="M13,139V25A12,12,0,0,1,25,13H139a12,12,0,0,1,12,12V139a12,12,0,0,1-12,12H25A12,12,0,0,1,13,139Z"/><path class="cls-4" d="M139,154H25a15,15,0,0,1-15-15V25A15,15,0,0,1,25,10H139a15,15,0,0,1,15,15V139A15,15,0,0,1,139,154ZM25,16a9,9,0,0,0-9,9V139a9,9,0,0,0,9,9H139a9,9,0,0,0,9-9V25a9,9,0,0,0-9-9Z"/><path class="cls-5" d="M29.5,29.5h105v105H29.5Zm96.4,80c-.77-4.79-3.89-8.82-13.14-12.57-3.22-1.51-6.8-2.56-7.86-5a5.12,5.12,0,0,1-.2-3.08c.65-2.83,4-3.68,6.63-2.89a7.13,7.13,0,0,1,4.27,3.94c4.52-3,4.52-3,7.67-4.93a18,18,0,0,0-2.56-3.41c-2.76-3.08-6.43-4.66-12.4-4.52l-3.08.39a14,14,0,0,0-7.48,4.39c-5,5.65-3.55,15.5,2.48,19.56,6,4.47,14.71,5.45,15.82,9.65,1,5.12-3.8,6.76-8.6,6.17-3.54-.79-5.51-2.56-7.67-5.84l-8,4.59c.92,2.1,2,3,3.54,4.86,7.62,7.68,26.65,7.28,30.06-4.4a14.8,14.8,0,0,0,.33-7.22ZM86.6,77.76H76.76c0,8.48,0,16.91,0,25.4,0,5.39.28,10.34-.6,11.86-1.44,3-5.16,2.63-6.85,2.1a8.48,8.48,0,0,1-3.63-3.74c-.28-.46-.48-.86-.56-.86l-8,4.92a15.44,15.44,0,0,0,5.79,6.64,19.27,19.27,0,0,0,14,1.77,12.26,12.26,0,0,0,7.92-6.17c2.24-4.07,1.76-9.06,1.74-14.64,0-9,0-18,0-27Z"/></svg>