<svg id="Layer_1" data-name="Layer 1" xmlns="http://www.w3.org/2000/svg" viewBox="0 0 90 90"><defs><style>.cls-1{fill:#010101;isolation:isolate;opacity:0.35;}.cls-2{fill:#f3f3f3;}.cls-3{fill:#333;}.cls-4{fill:#fff;}</style></defs><circle class="cls-1" cx="46" cy="46" r="44"/><circle class="cls-2" cx="44" cy="44" r="44"/><path d="M44,6.5A37.5,37.5,0,1,0,81.5,44,37.5,37.5,0,0,0,44,6.5Z"/><path class="cls-3" d="M44,83A39,39,0,1,1,83,44,39.05,39.05,0,0,1,44,83ZM44,8A36,36,0,1,0,80,44,36,36,0,0,0,44,8Z"/><path class="cls-4" d="M39.4,67.3l-1.2-.37a24.37,24.37,0,0,1-8.64-5A21.79,21.79,0,0,1,22.89,51.4a23.63,23.63,0,0,1-.76-4.26,22.62,22.62,0,0,1,0-3.86,23,23,0,0,1,1.25-5.86,22.76,22.76,0,0,1,4.26-7.29,23.57,23.57,0,0,1,5.92-4.93,22.93,22.93,0,0,1,7.68-2.86A22.31,22.31,0,0,1,45.13,22a11.41,11.41,0,0,1,3.47.61,15,15,0,0,1,7.8,6.05,18.81,18.81,0,0,1,2.89,6.89,26.86,26.86,0,0,1,.59,7,15.78,15.78,0,0,1-2.39,8,13,13,0,0,1-5.65,5.11,9.39,9.39,0,0,1-4.72.87c-.43,0-.85-.14-1.34-.22.43-.29.8-.52,1.15-.78a12.09,12.09,0,0,0,4.93-7.93,14.2,14.2,0,0,0-.94-8.34,11.77,11.77,0,0,0-3.39-4.39A10.1,10.1,0,0,0,45,33.34a8.77,8.77,0,0,0-2-.47,9.8,9.8,0,0,0-4.49.46,11.46,11.46,0,0,0-4.31,2.59,14.91,14.91,0,0,0-4.28,7.78,22.85,22.85,0,0,0-.41,6.9,28.72,28.72,0,0,0,.84,5.21,19.45,19.45,0,0,0,2.35,5.46,15.58,15.58,0,0,0,4.84,4.89c.61.4,1.27.74,1.91,1.1Z"/><path class="cls-4" d="M50.6,22.7l1.2.37A24.37,24.37,0,0,1,60.44,28,21.82,21.82,0,0,1,67.11,38.6a23.63,23.63,0,0,1,.76,4.26,22.61,22.61,0,0,1,0,3.86,23,23,0,0,1-1.25,5.86,22.76,22.76,0,0,1-4.26,7.29,23.57,23.57,0,0,1-5.92,4.93,22.93,22.93,0,0,1-7.68,2.86,22.31,22.31,0,0,1-3.92.34,11.41,11.41,0,0,1-3.47-.61,15.07,15.07,0,0,1-7.8-6,19,19,0,0,1-2.89-6.9,27.22,27.22,0,0,1-.59-7,15.84,15.84,0,0,1,2.39-8,12.94,12.94,0,0,1,5.66-5.1,9.24,9.24,0,0,1,4.72-.87c.42,0,.85.14,1.33.22-.43.29-.8.52-1.15.78a12.17,12.17,0,0,0-4.93,7.93,14.21,14.21,0,0,0,1,8.34,11.72,11.72,0,0,0,3.38,4.39A10.13,10.13,0,0,0,45,56.65a7.86,7.86,0,0,0,2,.47,9.78,9.78,0,0,0,4.49-.45,11.63,11.63,0,0,0,4.32-2.59,15,15,0,0,0,4.28-7.78,23.51,23.51,0,0,0,.41-6.9,29.64,29.64,0,0,0-.85-5.21,19.75,19.75,0,0,0-2.33-5.47,15.72,15.72,0,0,0-4.85-4.89c-.61-.39-1.27-.73-1.9-1.1Z"/></svg>