<?xml version="1.0" standalone="no"?>
<!DOCTYPE svg PUBLIC "-//W3C//DTD SVG 20010904//EN"
 "http://www.w3.org/TR/2001/REC-SVG-20010904/DTD/svg10.dtd">
<svg version="1.0" xmlns="http://www.w3.org/2000/svg"
 width="48.000000pt" height="48.000000pt" viewBox="0 0 48.000000 48.000000"
 preserveAspectRatio="xMidYMid meet">

<g transform="translate(0.000000,48.000000) scale(0.100000,-0.100000)"
fill="#000000" stroke="none">
<path d="M180 471 c-116 -36 -192 -146 -177 -256 11 -76 64 -162 87 -139 7 7
6 31 -1 68 -8 43 -7 71 1 107 22 90 109 136 175 93 27 -18 27 -17 81 55 10 12
14 10 28 -17 23 -45 30 -110 17 -159 -23 -83 -118 -130 -178 -88 -21 15 -23
14 -48 -24 -14 -23 -25 -47 -25 -55 0 -8 21 -24 46 -36 34 -17 55 -21 86 -16
125 20 219 137 205 255 -10 84 -76 181 -113 167 -7 -3 -18 2 -26 11 -29 36
-101 51 -158 34z"/>
</g>
</svg>
