<svg id="Layer_1" data-name="Layer 1" xmlns="http://www.w3.org/2000/svg" viewBox="0 0 90 90"><defs><style>.cls-1{fill:#010101;isolation:isolate;opacity:0.35;}.cls-2{fill:#f3f3f3;}.cls-3{fill:#2b793c;}.cls-4{fill:#333;}.cls-5{fill:#fff;}</style></defs><circle class="cls-1" cx="46" cy="46" r="44"/><circle class="cls-2" cx="44" cy="44" r="44"/><path class="cls-3" d="M44,6.5A37.5,37.5,0,1,0,81.5,44,37.5,37.5,0,0,0,44,6.5Z"/><path class="cls-4" d="M44,83A39,39,0,1,1,83,44,39.05,39.05,0,0,1,44,83ZM44,8A36,36,0,1,0,80,44,36,36,0,0,0,44,8Z"/><path class="cls-5" d="M40.94,46l.25,1.43a19.18,19.18,0,0,0-2.61.69,9.41,9.41,0,0,0-2.5,1.44,1.43,1.43,0,0,0,0,2.3,5.3,5.3,0,0,0,1.79,1.21,13.31,13.31,0,0,0,9.7,0c1.11-.42,2.34-1,2.35-2.38s-1.24-2-2.4-2.46-2.27-.61-3.49-.94l-.13-1.46c2.64.13,5.09.5,7.19,2.05a3,3,0,0,1,1.29,2.58c.09.06.14.13.2.13,3.11.11,4.09,2,4.34,4.51a9.44,9.44,0,0,1-.1,2.6c-.44,2.5-1.63,3.52-4.41,3.86.2,3.43-2.29,4.49-4.91,5.23a15.82,15.82,0,0,1-12.08-1,4,4,0,0,1-2.35-3.85c.09-3.7.08-7.39,0-11.09a3.4,3.4,0,0,1,1.8-3.17A13.47,13.47,0,0,1,40.94,46ZM52.39,59c1.21.09,1.86-.27,2-1.25a14.36,14.36,0,0,0,0-3.21c-.12-1.09-.76-1.45-2-1.3Z"/><path class="cls-5" d="M43.45,51.59a12.45,12.45,0,0,1-1.56-5.28,6.3,6.3,0,0,1-.09-1.15c0-1-.13-1.65-1.3-1.93a2.21,2.21,0,0,1-1.56-2.16,8.39,8.39,0,0,1,.12-2.79c.56-2,1.28-4,2-6,.49-1.45,1.16-2.85,1.52-4.32.49-2-.43-3.05-2.5-2.85-1.37.13-2.71.56-4.08.82a9.41,9.41,0,0,1-1.41,0,8,8,0,0,1,.07-1.3,6.72,6.72,0,0,1,.45-1.28,2.56,2.56,0,0,1,3.28-1.68,14.21,14.21,0,0,1,5.9,3,2.33,2.33,0,0,1,.66,3.19c-.57,1.19-1.42,2.24-2,3.45a34.76,34.76,0,0,0-2,5.54,4.2,4.2,0,0,0,1.88,4.83,2.86,2.86,0,0,0,4-.82c.58-.87.52-1.66-.16-2.12a1.82,1.82,0,0,0-2.42.45c-.23.35-.36.77-.62,1.09s-.54.45-.75.39a1.18,1.18,0,0,1-.71-.64,2.46,2.46,0,0,1,2.42-3.37,5.32,5.32,0,0,1,2.49.9,2.17,2.17,0,0,1,.55,3.22,5.57,5.57,0,0,1-3.51,2.61c-.84.19-1,.57-.92,1.29C43.26,47,43.35,49.29,43.45,51.59Zm-8-27.11.48.4,1-1.14a3.22,3.22,0,0,0-.47-.36C36.06,23.73,35.75,24.1,35.43,24.48Z"/></svg>