<svg id="Layer_1" data-name="Layer 1" xmlns="http://www.w3.org/2000/svg" viewBox="0 0 40 40"><defs><style>.cls-1{fill:#359044;}.cls-2{fill:#fff;}</style></defs><path class="cls-1" d="M20,0A20,20,0,1,0,40,20,20,20,0,0,0,20,0Z"/><path class="cls-2" d="M18.14,20.67l.12.66a8.63,8.63,0,0,0-1.19.31,4.19,4.19,0,0,0-1.14.66.66.66,0,0,0,0,1.05,2.64,2.64,0,0,0,.81.55,6.05,6.05,0,0,0,4.43,0c.51-.19,1.07-.45,1.07-1.08s-.56-.93-1.09-1.12a16.11,16.11,0,0,0-1.6-.43l-.05-.67a5.75,5.75,0,0,1,3.28.94,1.33,1.33,0,0,1,.59,1.17s.06.06.09.06c1.42.05,1.87.94,2,2.06a4.31,4.31,0,0,1,0,1.19c-.2,1.14-.74,1.6-2,1.76.1,1.57-1,2-2.24,2.39a7.19,7.19,0,0,1-5.51-.48,1.8,1.8,0,0,1-1.07-1.76c0-1.69,0-3.37,0-5.06a1.54,1.54,0,0,1,.81-1.45A6.12,6.12,0,0,1,18.14,20.67Zm5.23,5.91c.55,0,.85-.12.9-.57a6,6,0,0,0,0-1.47c-.05-.5-.35-.66-.9-.59Z"/><path class="cls-2" d="M19.29,23.21a5.76,5.76,0,0,1-.71-2.41,3.15,3.15,0,0,1,0-.53c0-.44-.06-.75-.6-.88a1,1,0,0,1-.71-1,3.9,3.9,0,0,1,.06-1.28c.25-.93.58-1.84.9-2.76.22-.66.53-1.3.69-2,.22-.92-.19-1.39-1.15-1.3-.62.06-1.24.26-1.86.37a3.43,3.43,0,0,1-.64,0,2.92,2.92,0,0,1,0-.59,2.86,2.86,0,0,1,.21-.58A1.17,1.17,0,0,1,17,9.55a6.52,6.52,0,0,1,2.69,1.38,1.07,1.07,0,0,1,.3,1.46c-.26.54-.65,1-.89,1.57a15.7,15.7,0,0,0-.93,2.53A1.93,1.93,0,0,0,19,18.7a1.31,1.31,0,0,0,1.81-.38c.26-.4.24-.76-.07-1a.84.84,0,0,0-1.11.21c-.11.16-.16.35-.28.5s-.25.2-.35.18a.57.57,0,0,1-.33-.3,1.13,1.13,0,0,1,1.11-1.54,2.7,2.7,0,0,1,1.14.41,1,1,0,0,1,.25,1.47,2.54,2.54,0,0,1-1.61,1.2c-.38.08-.43.26-.41.59C19.21,21.11,19.24,22.16,19.29,23.21ZM15.63,10.83l.22.18.44-.52-.22-.16C15.92,10.49,15.78,10.66,15.63,10.83Z"/></svg>