<svg id="Layer_1" data-name="Layer 1" xmlns="http://www.w3.org/2000/svg" viewBox="0 0 40 40"><defs><style>.cls-1{fill:#c71a36;}.cls-2{fill:#fff;}</style></defs><path class="cls-1" d="M20,0A20,20,0,1,0,40,20,20,20,0,0,0,20,0Z"/><path class="cls-2" d="M13.21,9.5a.69.69,0,0,0-.73.4,7.21,7.21,0,0,0-.29,2l1.07.52a13.18,13.18,0,0,1,.06-1.81,12.87,12.87,0,0,0,0,1.79c0,.3,0,.63.07,1a.13.13,0,0,1,0,.06c.07.71.16,1.41.27,2.11.05.33.11.66.17,1h0s0,0,0,0l0,.14c0,.14,0,.28.08.43l.1.48,0,.26c.12.6.25,1.2.4,1.81.07.33.16.68.25,1s.17.69.27,1,.17.64.26,1a.08.08,0,0,0,0,0c.09.35.19.69.29,1l.05.15c.06.23.13.47.21.71l-.26-.12L15.43,24a1.46,1.46,0,0,0,0-.2h0c-.08-.26-.15-.53-.23-.8l-.06-.23-.27-1c-.09-.33-.17-.67-.26-1l-.24-1c-.08-.36-.16-.7-.23-1.06s-.14-.7-.21-1-.13-.68-.19-1c0,0,0,0,0,0h0l-.15-1c0-.35-.1-.7-.14-1.05-.08-.7-.13-1.41-.15-2.11l-1.07-.52c0,.07,0,.13,0,.2,0,.26,0,.53,0,.82s0,.67,0,1,0,.66,0,1,0,.59.06.89v0h0a.13.13,0,0,1,0,.06l.09,1q.11.93.27,1.86l0,.17a18.11,18.11,0,0,0,.48,2c.06.21.12.41.18.59l.17.48q.21.55.45,1.08h0l0,.05a13,13,0,0,0,.66,1.22l0,0a3,3,0,0,0-1.1-.09,4.13,4.13,0,0,1,1.77,1,1.83,1.83,0,0,1-.84.42,2.06,2.06,0,0,0,.92-.08,2.26,2.26,0,0,0-.56,1.08,2.3,2.3,0,0,1,.9-1c.07.22.15.45.22.69-.67,1.31-1.32,2.64-2,4a.47.47,0,0,0,.38-.27c.11-.25.72-1.56,1.67-3.39.36,1.14.77,2.34,1.21,3.59a.43.43,0,0,0,.07-.41c-.41-1.14-.79-2.29-1.15-3.45l.43-.81a2.92,2.92,0,0,1,.34.13,2.15,2.15,0,0,1,.42.74,1.33,1.33,0,0,0-.29-1A2.84,2.84,0,0,0,20,25a2,2,0,0,0,.17-.23A1.12,1.12,0,0,1,19,25a3.16,3.16,0,0,0,1.78-1.07,3.85,3.85,0,0,0,.33-.42,2.6,2.6,0,0,1-2.54.44l0,0a4.68,4.68,0,0,0,2.71-1,6.91,6.91,0,0,0,1-1.06A10.81,10.81,0,0,0,23,20.74c.2-.35.41-.72.61-1.13a3.55,3.55,0,0,1-.65.12h-.25a2.83,2.83,0,0,0,1.74-1.26,2.73,2.73,0,0,1-.93.26h-.2a2.76,2.76,0,0,0,.7-.27,2.2,2.2,0,0,0,.32-.21l.11-.09a2,2,0,0,0,.25-.25.71.71,0,0,0,.07-.09l.09-.12a7.85,7.85,0,0,0,.44-.73.25.25,0,0,0,0-.07l.1-.2c0-.09.06-.16.08-.21l-.09,0a3.09,3.09,0,0,1-.95.18h-.07A2.45,2.45,0,0,0,25.61,16a13.46,13.46,0,0,0,1-1.25c.23-.33.44-.65.61-.94s.18-.34.26-.52l.15-.39h-1.3c.43,0,.89,0,1.3,0a2.58,2.58,0,0,0,.06-2s-.46-1.06-1.23-.74a8,8,0,0,0-1.82,1.36l.45,1.27a15.22,15.22,0,0,1,1.49-1.4,14.49,14.49,0,0,0-1.42,1.44c-.22.25-.47.55-.73.87l-.05,0c-.5.63-1,1.27-1.45,1.92-.22.3-.44.61-.67.95h0s0,0,0,0l-.08.13-.28.41-.31.47-.16.24-.49.77c-.43.67-.84,1.35-1.25,2s-.79,1.36-1.17,2.05l0,.05-.59,1.07-.08.16c-.15.28-.31.56-.46.86h0a.75.75,0,0,0-.07.12l-.39.76a1.56,1.56,0,0,0-.2-.16l.3-.56.12-.24,0-.07.48-.87.11-.21h0l.45-.82.14-.23c.19-.35.4-.7.6-1.05.6-1,1.22-2.06,1.86-3.07l.66-1c.08-.13.16-.24.25-.36l.42-.62s0,0,0,0h0l.67-.93.73-1c.49-.63,1-1.24,1.55-1.82l-.45-1.27-.16.16-.67.64-.8.82c-.49.52-1,1.06-1.42,1.6l0,0h0l0,.06c-.23.28-.47.56-.7.86-.44.55-.86,1.12-1.26,1.7a1.63,1.63,0,0,0-.11.17,23,23,0,0,0-1.23,2l-.32.63c-.09.17-.17.34-.25.52-.18.4-.34.81-.49,1.22h0a.14.14,0,0,0,0,.06c-.1.26-.18.53-.26.79a2,2,0,0,1-.42.41l-.11-.14a4.62,4.62,0,0,0,.72-1.93,5.65,5.65,0,0,0,0-1.3,8.69,8.69,0,0,0-.21-1.12c-.08-.34-.18-.71-.31-1.09a2.75,2.75,0,0,1-.33.48l-.08.08a.6.6,0,0,1-.08.08,2.49,2.49,0,0,0,.31-1.88,2.25,2.25,0,0,1-.43.75l-.09.1,0,0a2.53,2.53,0,0,0,.28-.61l0-.13a1.29,1.29,0,0,0,0-.19v-.13a1.61,1.61,0,0,0,0-.31.31.31,0,0,0,0-.1c0-.05,0-.09,0-.13a6.11,6.11,0,0,0-.17-.74s0,0,0-.07,0-.13-.07-.19a1.42,1.42,0,0,0-.08-.18.16.16,0,0,1,0,.09,2.74,2.74,0,0,1-.48.7h0l0,0a2.19,2.19,0,0,0,.34-1.23,9.62,9.62,0,0,0-.14-1.41c-.05-.33-.12-.65-.2-1-.05-.16-.1-.33-.16-.49s-.1-.23-.15-.34h0a2.27,2.27,0,0,0-1.19-1.28,1.65,1.65,0,0,0-.51-.11Zm2.95,13.81,0,.07h0l-.15.09,0,0,.17-.18Zm-.52,1.42A1.86,1.86,0,0,0,16,25l.06.2-.22.05,0-.09L15.7,25l0-.07Zm.22.77h.24l.06.2a.54.54,0,0,1,.22,0l-.29.54C16,26,15.94,25.75,15.86,25.5Z"/></svg>