<svg id="Layer_1" data-name="Layer 1" xmlns="http://www.w3.org/2000/svg" viewBox="0 0 168 168"><defs><style>.cls-1{isolation:isolate;opacity:0.35;}.cls-2{fill:#f2f2f2;}.cls-3{fill:#c71a36;}.cls-4{fill:#333;}.cls-5{fill:#fff;}</style></defs><path class="cls-1" d="M29,168A25,25,0,0,1,4,143V29A25,25,0,0,1,29,4H143a25,25,0,0,1,25,25V143a25,25,0,0,1-25,25Z"/><path class="cls-2" d="M25,164A25,25,0,0,1,0,139V25A25,25,0,0,1,25,0H139a25,25,0,0,1,25,25V139a25,25,0,0,1-25,25Z"/><path class="cls-3" d="M13,139V25A12,12,0,0,1,25,13H139a12,12,0,0,1,12,12V139a12,12,0,0,1-12,12H25A12,12,0,0,1,13,139Z"/><path class="cls-4" d="M139,154H25a15,15,0,0,1-15-15V25A15,15,0,0,1,25,10H139a15,15,0,0,1,15,15V139A15,15,0,0,1,139,154ZM25,16a9,9,0,0,0-9,9V139a9,9,0,0,0,9,9H139a9,9,0,0,0,9-9V25a9,9,0,0,0-9-9Z"/><path class="cls-5" d="M48,29.51a3.45,3.45,0,0,0-3.63,2c-.69,1.64-1.23,5.2-1.48,10l5.35,2.59a67.15,67.15,0,0,1,.33-9,64.39,64.39,0,0,0,0,8.92c.08,1.5.21,3.17.38,5a2.53,2.53,0,0,0,0,.3q.54,5.3,1.35,10.56c.25,1.61.55,3.29.86,5.07l0,0c.06,0,.07.08.06.1l.13.7c.14.71.27,1.44.41,2.17l.47,2.42.25,1.26c.61,3,1.28,6,2,9,.39,1.67.81,3.41,1.25,5.19s.87,3.42,1.36,5.21c.42,1.59.87,3.22,1.32,4.89a2.17,2.17,0,0,0,.07.24q.73,2.59,1.48,5.19l.22.76c.34,1.14.69,2.33,1.06,3.52-.44-.18-.86-.38-1.28-.59l-.84-2.86c-.08-.34-.18-.65-.27-1h0c-.38-1.32-.75-2.66-1.13-4-.1-.38-.19-.76-.3-1.15l-1.37-5.15c-.44-1.67-.85-3.35-1.27-5S54,82.39,53.6,80.68s-.8-3.5-1.16-5.26-.71-3.5-1-5.22-.64-3.41-.93-5.12a1,1,0,0,0,0-.18h0c-.25-1.69-.51-3.37-.76-5s-.47-3.51-.68-5.27c-.4-3.5-.65-7-.75-10.54l-5.34-2.58c0,.32,0,.65,0,1-.06,1.29-.09,2.65-.1,4.07,0,1.69,0,3.38,0,5.06s.11,3.31.2,5c.09,1.47.18,2.95.3,4.47v.17l0,0a3.11,3.11,0,0,1,0,.33c.14,1.61.28,3.23.46,4.88q.52,4.66,1.33,9.29c0,.28.1.58.15.86q.95,5.13,2.4,10.15c.3,1,.61,2,.91,3s.57,1.6.85,2.38c.68,1.85,1.43,3.64,2.24,5.39l0,0a.85.85,0,0,0,.09.22,54.09,54.09,0,0,0,3.3,6.1l.13.21a14.32,14.32,0,0,0-5.48-.42c3.63,1.26,6.81,2.8,8.82,5.14a9.3,9.3,0,0,1-4.17,2.08,9.24,9.24,0,0,0,4.57-.4c-1.35,1.14-2.11,3.2-2.78,5.43,1.54-2.5,3-4.16,4.52-4.79.34,1.13.71,2.29,1.07,3.45q-5,9.87-9.73,19.92a2.45,2.45,0,0,0,1.88-1.36c.57-1.24,3.63-7.77,8.35-17,1.81,5.7,3.85,11.72,6.06,18a2.17,2.17,0,0,0,.34-2q-3-8.57-5.73-17.25l2.12-4.08a13.68,13.68,0,0,1,1.7.68,9.45,9.45,0,0,1,2.11,3.67,6.61,6.61,0,0,0-1.46-4.8c5.84,1.13,11.14.39,14.38-3.55a13.23,13.23,0,0,0,.84-1.13c-1.42,1.33-3,1.77-5.74,1.2,4.35-1.23,6.66-2.7,8.9-5.34.52-.63,1.07-1.32,1.62-2.1a12.94,12.94,0,0,1-12.68,2.16l-.2-.08c4,.09,9.64-2.07,13.53-5.2A32,32,0,0,0,93.19,91a48.67,48.67,0,0,0,3.59-5.32Q98.33,83.1,99.84,80a12.62,12.62,0,0,1-3.23.6l-.63,0h-.64c3.87-.87,6.56-3.24,8.72-6.33a13.43,13.43,0,0,1-4.68,1.3,6.87,6.87,0,0,1-.8,0h-.2a14.74,14.74,0,0,0,3.54-1.35,15.24,15.24,0,0,0,1.57-1l.57-.46a10.42,10.42,0,0,0,1.22-1.26,4.7,4.7,0,0,0,.35-.43c.16-.21.32-.42.46-.63a37.57,37.57,0,0,0,2.23-3.63c.06-.13.14-.25.2-.38.17-.37.35-.7.48-1s.32-.79.4-1a1.87,1.87,0,0,1-.47.23,15.87,15.87,0,0,1-4.75.88h-.35A12.48,12.48,0,0,0,110.05,62a60.51,60.51,0,0,0,5-6.25,54.53,54.53,0,0,0,3-4.69,28.47,28.47,0,0,0,1.3-2.59c.29-.69.53-1.34.75-2-2,0-4.31,0-6.47,0,2.16,0,4.44,0,6.49,0,2.19-6.5.28-9.9.28-9.9s-2.3-5.3-6.13-3.72c-1.86.76-5.13,3.19-9.11,6.82L107.49,46a76,76,0,0,1,7.45-7,72.88,72.88,0,0,0-7.07,7.19c-1.12,1.27-2.35,2.73-3.69,4.36-.07.09-.15.17-.21.26q-3.77,4.7-7.28,9.57c-1.09,1.49-2.18,3.08-3.35,4.76h-.07c0,.09,0,.13,0,.14l-.44.67c-.45.68-.93,1.35-1.39,2.05l-1.54,2.34c-.26.39-.54.79-.81,1.21-.81,1.24-1.61,2.51-2.44,3.82q-3.19,5.07-6.25,10.23T74.48,95.86a1.65,1.65,0,0,1-.15.25q-1.47,2.67-2.92,5.35l-.42.79c-.75,1.39-1.52,2.81-2.28,4.29,0,0,0,0,0,0-.12.21-.22.41-.32.62-.51,1-1,1.85-2,3.81a5.62,5.62,0,0,0-1-.8l1.51-2.84c.21-.39.42-.78.63-1.19l.17-.33,2.39-4.38.57-1v0c.74-1.36,1.51-2.72,2.27-4.12.22-.38.45-.75.67-1.16,1-1.72,2-3.47,3-5.23q4.5-7.77,9.34-15.33c1.08-1.69,2.2-3.37,3.3-5,.4-.61.8-1.19,1.22-1.8l2.1-3.06c0-.06.09-.11.12-.16h0c1.14-1.56,2.26-3.12,3.38-4.66s2.43-3.22,3.64-4.77c2.45-3.14,5-6.17,7.77-9.08l-2.25-6.33-.84.78c-1.13,1-2.23,2.11-3.32,3.19-1.29,1.29-2.61,2.65-4,4.09q-3.67,3.93-7.14,8l-.13.15v0c-.08.09-.15.19-.24.28-1.16,1.42-2.35,2.84-3.5,4.31q-3.3,4.17-6.32,8.53l-.56.82A116.11,116.11,0,0,0,73.05,80c-.57,1.08-1.12,2.12-1.62,3.13-.42.85-.81,1.73-1.21,2.59-.92,2-1.74,4.06-2.48,6.12v0a1.19,1.19,0,0,0-.11.26c-.48,1.32-.89,2.66-1.27,4a11.28,11.28,0,0,1-2.12,2c-.18-.23-.37-.45-.57-.67a22.52,22.52,0,0,0,3.61-9.68,28.35,28.35,0,0,0-.07-6.51,46.4,46.4,0,0,0-1-5.57c-.42-1.72-.94-3.54-1.58-5.46a11.09,11.09,0,0,1-1.66,2.39l-.38.41c-.12.14-.26.26-.4.41A12.66,12.66,0,0,0,63.72,64a11.94,11.94,0,0,1-2.15,3.72c-.14.17-.31.34-.48.51s-.08.08-.14.12a13.23,13.23,0,0,0,1.39-3,5,5,0,0,0,.17-.64c.07-.33.13-.66.17-1l.08-.64a8.8,8.8,0,0,0,0-1.54c0-.18,0-.34,0-.5s-.07-.46-.12-.67a31.13,31.13,0,0,0-.85-3.68c0-.12-.06-.24-.11-.37-.12-.34-.21-.65-.32-.91a7.33,7.33,0,0,0-.39-.91,1.69,1.69,0,0,1-.15.43,13.89,13.89,0,0,1-2.44,3.5s0,0,0,0l-.18.19a11.12,11.12,0,0,0,1.69-6.12,54.08,54.08,0,0,0-.7-7.07,44.59,44.59,0,0,0-1-4.83c-.22-.82-.48-1.64-.78-2.44-.23-.58-.49-1.15-.76-1.71v0c-2.67-5.45-6-6.4-6-6.4A8.41,8.41,0,0,0,48,29.51ZM62.82,98.56l.14.35h0c-.26.15-.5.3-.78.43a1.22,1.22,0,0,0-.17.08,11.38,11.38,0,0,0,.82-.88Zm-2.63,7.11a12.92,12.92,0,0,0,1.54,1.4l.31,1a10.4,10.4,0,0,0-1.08.23l-.13-.42c-.1-.37-.21-.75-.33-1.13l-.09-.32Zm1.13,3.83a9.47,9.47,0,0,1,1.19,0l.3,1a3.32,3.32,0,0,1,1.09,0l-1.43,2.74C62.08,112,61.7,110.76,61.32,109.5Z"/></svg>