<svg id="Layer_1" data-name="Layer 1" xmlns="http://www.w3.org/2000/svg" viewBox="0 0 90 90"><defs><style>.cls-1{fill:#010101;isolation:isolate;opacity:0.35;}.cls-2{fill:#f3f3f3;}.cls-3{fill:#c72037;}.cls-4{fill:#333;}.cls-5{fill:#fff;}</style></defs><circle class="cls-1" cx="46" cy="46" r="44"/><circle class="cls-2" cx="44" cy="44" r="44"/><path class="cls-3" d="M44,6.5A37.5,37.5,0,1,0,81.5,44,37.5,37.5,0,0,0,44,6.5Z"/><path class="cls-4" d="M44,83A39,39,0,1,1,83,44,39.05,39.05,0,0,1,44,83ZM44,8A36,36,0,1,0,80,44,36,36,0,0,0,44,8Z"/><path class="cls-5" d="M30.1,22a1.5,1.5,0,0,0-1.59.87,15.57,15.57,0,0,0-.65,4.38l2.34,1.14a28.93,28.93,0,0,1,.15-3.95,28.35,28.35,0,0,0,0,3.91c0,.66.09,1.39.16,2.19v.13c.16,1.55.36,3.09.59,4.63.11.7.25,1.44.38,2.22h0s0,0,0,0l0,.31c.07.31.12.63.18,1L32,39.9l.11.55c.27,1.31.56,2.63.88,3.94.17.73.35,1.5.54,2.28s.38,1.49.6,2.28.38,1.41.58,2.14a.19.19,0,0,0,0,.1c.21.76.43,1.52.65,2.28l.09.33c.15.5.3,1,.47,1.54a4.79,4.79,0,0,1-.56-.26L35,53.83c0-.15-.08-.28-.12-.44h0c-.17-.58-.33-1.16-.5-1.75,0-.17-.08-.33-.13-.5l-.6-2.26c-.19-.73-.37-1.47-.55-2.19s-.35-1.51-.52-2.26-.35-1.54-.51-2.31-.31-1.53-.44-2.28-.28-1.5-.4-2.25v-.07h0c-.11-.74-.23-1.48-.34-2.19s-.2-1.54-.29-2.31c-.18-1.54-.29-3.07-.33-4.62L27.9,27.27v.44c0,.56,0,1.16,0,1.78v2.22c0,.73,0,1.45.09,2.19s.08,1.29.13,2v.07h0a.33.33,0,0,1,0,.14c.06.71.13,1.42.2,2.14.16,1.36.35,2.72.59,4.07a2.5,2.5,0,0,0,.06.38q.42,2.25,1,4.44c.14.44.27.88.4,1.32s.25.7.38,1c.29.81.62,1.59,1,2.36h0a.21.21,0,0,0,0,.1,22.9,22.9,0,0,0,1.44,2.67l.06.09a6.08,6.08,0,0,0-2.4-.18,8.73,8.73,0,0,1,3.86,2.25,4.06,4.06,0,0,1-1.83.91,4,4,0,0,0,2-.18,4.93,4.93,0,0,0-1.22,2.38,5,5,0,0,1,2-2.1c.15.5.31,1,.47,1.52Q34,63.6,31.88,68a1.08,1.08,0,0,0,.82-.6C33,66.86,34.29,64,36.36,60c.79,2.49,1.68,5.13,2.65,7.88a.94.94,0,0,0,.15-.87c-.88-2.51-1.71-5-2.51-7.56l.93-1.79c.25.09.5.19.74.3a4.2,4.2,0,0,1,.93,1.61,2.9,2.9,0,0,0-.64-2.1c2.56.49,4.88.17,6.3-1.56a5.6,5.6,0,0,0,.36-.49,2.5,2.5,0,0,1-2.51.52,7,7,0,0,0,3.9-2.34,11,11,0,0,0,.71-.92,5.68,5.68,0,0,1-5.56,1l-.08,0a10.26,10.26,0,0,0,5.92-2.27A13.71,13.71,0,0,0,49.89,49a21.58,21.58,0,0,0,1.57-2.33c.45-.76.9-1.59,1.34-2.49a5.24,5.24,0,0,1-1.41.26h-.56a6.29,6.29,0,0,0,3.82-2.77,5.86,5.86,0,0,1-2,.57,2,2,0,0,1-.35,0h-.09a6.61,6.61,0,0,0,1.55-.59,6.2,6.2,0,0,0,.69-.44l.25-.2a5.62,5.62,0,0,0,.54-.55l.15-.19.2-.28a16.15,16.15,0,0,0,1-1.59c0-.05.06-.11.08-.16s.16-.31.21-.44.14-.35.18-.44a.68.68,0,0,1-.21.1,7.36,7.36,0,0,1-2.08.39h-.15a5.44,5.44,0,0,0,2.72-1.55,26,26,0,0,0,2.19-2.74,21.17,21.17,0,0,0,1.32-2.06,10.86,10.86,0,0,0,.57-1.13c.12-.3.23-.59.33-.88h0c1-2.84.12-4.33.12-4.33s-1-2.32-2.69-1.63a17.77,17.77,0,0,0-4,3l1,2.77a32.72,32.72,0,0,1,3.27-3.07,31.78,31.78,0,0,0-3.1,3.15c-.49.56-1,1.2-1.62,1.91l-.09.11c-1.1,1.38-2.16,2.77-3.19,4.2-.47.65-1,1.34-1.46,2.08h0v.06l-.19.3c-.19.29-.41.59-.61.89l-.67,1c-.12.17-.24.34-.36.53-.35.54-.7,1.1-1.06,1.67-.94,1.48-1.85,3-2.74,4.48s-1.76,3-2.6,4.5c0,0,0,.07-.06.11-.43.78-.86,1.56-1.28,2.34l-.18.34c-.33.61-.67,1.24-1,1.88h0c-.05.1-.1.18-.14.28-.23.43-.44.81-.88,1.66a2.51,2.51,0,0,0-.44-.35l.66-1.24c.1-.17.19-.34.28-.52l.08-.15,1-1.91.25-.44h0l1-1.81.29-.51c.44-.75.88-1.51,1.31-2.29q2-3.39,4.09-6.71c.48-.74,1-1.48,1.45-2.19.17-.27.35-.52.53-.79l.92-1.34s0,0,.06-.07h0l1.48-2c.49-.67,1.06-1.41,1.59-2.09,1.07-1.37,2.19-2.7,3.4-4l-1-2.77-.37.34c-.49.44-1,.93-1.45,1.4L51.58,30Q50,31.75,48.46,33.53l-.06.06h0l-.1.12c-.51.63-1,1.25-1.54,1.89-1,1.22-1.88,2.46-2.77,3.74l-.24.36a51.12,51.12,0,0,0-2.68,4.43c-.25.47-.49.93-.71,1.37s-.36.76-.53,1.13c-.4.88-.76,1.78-1.09,2.69h0a1.17,1.17,0,0,0-.05.11c-.21.58-.39,1.16-.55,1.75a4.85,4.85,0,0,1-.93.88l-.25-.3a9.8,9.8,0,0,0,1.58-4.24,12.36,12.36,0,0,0,0-2.85,20.47,20.47,0,0,0-.44-2.44c-.18-.75-.41-1.55-.69-2.39a4.71,4.71,0,0,1-.73,1l-.16.18c-.06.06-.12.11-.18.18A5.5,5.5,0,0,0,37,37.12,5.1,5.1,0,0,1,36,38.75a2.18,2.18,0,0,1-.21.22l-.06.06a5.86,5.86,0,0,0,.61-1.32,2.29,2.29,0,0,0,.07-.28c0-.14.06-.29.08-.44l0-.28a3.75,3.75,0,0,0,0-.67v-.22a1.77,1.77,0,0,0-.05-.29,14,14,0,0,0-.37-1.61.55.55,0,0,0,0-.17c-.05-.15-.09-.28-.14-.4s-.11-.27-.17-.39a1.34,1.34,0,0,1-.07.18,5.83,5.83,0,0,1-1.07,1.54h0l-.08.08a4.78,4.78,0,0,0,.74-2.68A23.07,23.07,0,0,0,35,29a21.34,21.34,0,0,0-.44-2.11c-.1-.36-.21-.72-.34-1.07s-.22-.5-.33-.75h0c-1.17-2.39-2.63-2.8-2.63-2.8A3.57,3.57,0,0,0,30.1,22Zm6.49,30.24.06.15h0l-.34.19-.08,0q.2-.2.36-.39Zm-1.15,3.11a5.66,5.66,0,0,0,.67.62l.14.43-.48.1-.05-.18-.15-.49,0-.14Zm.49,1.68h.52l.13.44a1.29,1.29,0,0,1,.48,0l-.63,1.2C36.26,58.15,36.1,57.6,35.93,57.05Z"/></svg>