<?xml version="1.0" encoding="utf-8"?>
<!-- Generator: Adobe Illustrator 26.1.0, SVG Export Plug-In . SVG Version: 6.00 Build 0)  -->
<svg version="1.1" id="Layer_1" xmlns="http://www.w3.org/2000/svg" xmlns:xlink="http://www.w3.org/1999/xlink" x="0px" y="0px"
	 viewBox="0 0 90 90" style="enable-background:new 0 0 90 90;" xml:space="preserve">
<style type="text/css">
	.st0{opacity:0.35;fill:#010101;enable-background:new    ;}
	.st1{fill:#F3F3F3;}
	.st2{fill:#4479A1;}
	.st3{fill:#333333;}
	.st4{fill:#FFFFFF;}
</style>
<circle class="st0" cx="46" cy="46" r="44"/>
<circle class="st1" cx="44" cy="44" r="44"/>
<path class="st2" d="M44,6.5C23.3,6.5,6.5,23.3,6.5,44S23.3,81.5,44,81.5S81.5,64.7,81.5,44S64.7,6.5,44,6.5z"/>
<path class="st3" d="M44,83C22.5,83,5,65.5,5,44S22.5,5,44,5s39,17.5,39,39C83,65.5,65.5,83,44,83z M44,8C24.1,8,8,24.1,8,44
	s16.1,36,36,36s36-16.1,36-36S63.9,8,44,8z"/>
<path class="st4" d="M50.7,32.6c-0.4,0-0.8,0.2-1,0.6c-0.3,0.8,0.5,1.6,0.8,2c0.2,0.3,0.4,0.6,0.6,0.9c0.1,0.2,0.1,0.4,0.2,0.7
	c0.2,0.6,0.5,1.1,0.8,1.7c0.1,0.3,0.3,0.5,0.4,0.8c0.1,0.1,0.3,0.2,0.3,0.4c-0.1,0.3-0.2,0.6-0.3,0.9c-0.4,1.4-0.3,2.8,0.4,4.1
	c0.2,0.3,0.7,1,1.3,0.7s0.4-0.9,0.6-1.5c0-0.1,0-0.2,0.1-0.3l0,0l0.5,1c0.4,0.6,1,1.2,1.6,1.7c0.3,0.2,0.5,0.6,0.9,0.7l0,0l0,0
	c-0.1-0.1-0.2-0.2-0.3-0.2c-0.3-0.2-0.5-0.5-0.7-0.7c-0.5-0.7-1-1.5-1.4-2.2c-0.2-0.4-0.4-0.8-0.5-1.2c-0.1-0.2-0.1-0.4-0.2-0.4
	c-0.2,0.3-0.4,0.5-0.6,0.8c-0.2,0.6-0.3,1.2-0.3,1.9c0,0,0,0-0.1,0c-0.4-0.1-0.5-0.5-0.7-0.8c-0.4-1.1-0.4-2.2-0.1-3.3
	c0.1-0.3,0.5-1.1,0.3-1.3S53.1,39,53,38.8c-0.2-0.2-0.3-0.5-0.4-0.8c-0.3-0.7-0.6-1.5-0.9-2.2c-0.2-0.3-0.4-0.6-0.7-0.9
	c-0.3-0.3-0.5-0.6-0.7-1c-0.1-0.1-0.2-0.4,0-0.5c0-0.1,0.1-0.2,0.2-0.2c0.2-0.1,0.6,0,0.8,0.1c0.4,0.2,0.8,0.4,1.2,0.6
	c0.2,0.2,0.4,0.3,0.6,0.4h0.2c0.4,0.1,0.8,0,1.2,0.1c0.6,0.2,1.2,0.5,1.8,0.8c1.6,1,3,2.5,3.8,4.2c0.2,0.3,0.2,0.5,0.3,0.8
	c0.2,0.6,0.6,1.2,0.8,1.8c0.2,0.6,0.5,1.1,0.8,1.7c0.2,0.2,0.9,0.4,1.3,0.5c0.3,0.1,0.6,0.2,0.9,0.3c0.4,0.3,0.8,0.5,1.2,0.8
	c0.2,0.1,0.8,0.4,0.8,0.7c-0.8-0.1-1.6,0-2.4,0.3c-0.2,0.1-0.5,0.1-0.5,0.3c0.1,0.1,0.1,0.3,0.2,0.4c0.2,0.3,0.4,0.5,0.7,0.8
	c0.2,0.2,0.5,0.4,0.8,0.6c0.5,0.3,1,0.4,1.5,0.8c0.3,0.2,0.6,0.4,0.8,0.6s0.2,0.2,0.4,0.3l0,0c-0.1-0.1-0.1-0.3-0.2-0.4l-0.4-0.4
	c-0.4-0.5-0.8-0.9-1.3-1.2c-0.4-0.3-1.2-0.7-1.4-1.1l0,0c0.3,0,0.6-0.1,0.8-0.2c0.4-0.1,0.8-0.1,1.2-0.2l0.6-0.2v-0.1
	c-0.2-0.2-0.4-0.5-0.6-0.7c-0.6-0.6-1.3-1.1-2-1.5c-0.4-0.2-0.9-0.4-1.3-0.6c-0.1-0.1-0.4-0.1-0.5-0.2c-0.2-0.3-0.4-0.7-0.5-1
	c-0.3-0.7-0.7-1.4-1-2.1c-0.2-0.5-0.4-0.9-0.6-1.4c-1.1-1.9-2.8-3.5-4.8-4.6c-0.5-0.2-1-0.4-1.5-0.5h-0.9c-0.2-0.1-0.4-0.3-0.6-0.4
	C52.2,33,51.5,32.7,50.7,32.6z M53.7,35.6c-0.2,0-0.3,0-0.5,0l0,0l0,0c0.1,0.2,0.2,0.3,0.4,0.5c0.1,0.2,0.2,0.4,0.3,0.6l0,0
	c0.2-0.1,0.3-0.4,0.2-0.6c-0.1-0.1-0.1-0.2-0.1-0.2S53.8,35.7,53.7,35.6L53.7,35.6z M23.7,47.3c-0.3,0-0.6,0.1-0.9,0.2
	c-0.5,0.1-0.9,0.6-0.8,1.2c0,0,0,0,0,0v7h1.8v-6.8l2.6,5.8c0.2,0.7,0.9,1.1,1.6,1c0.7,0.1,1.4-0.3,1.6-1l2.6-5.6v6.7H34v-7
	c0.1-0.5-0.3-1-0.8-1.2c-1.3-0.4-2.2,0-2.6,0.8L28,54.2l-2.5-5.9C25.2,47.6,24.5,47.2,23.7,47.3L23.7,47.3z M46.2,47.3
	c-0.7,0-3,0.1-3,1.8v1.1c0,0.8,0.7,1.5,2.2,1.6L46,52c0,0,1.8,0,1.8,0c1,0,0.9,0.8,0.9,0.9v0.9c0,0.5-0.3,0.9-0.8,0.9c0,0,0,0,0,0
	h-4.7v0.9h4.6c0.6,0,1.1-0.1,1.7-0.3c0.6-0.2,1.1-0.8,1.1-1.5v-1.4c0-1.4-1.8-1.5-2.8-1.5H46c-0.7,0-0.8-0.4-0.9-0.9v-0.9
	c0.1-0.4,0.2-0.9,0.9-0.9h4.6v-0.9L46.2,47.3z M53.3,47.3c-1.3,0.2-1.8,0.9-1.8,1.8v4.6c0,0.9,0.5,1.4,1.5,1.7
	c0.3,0.1,0.6,0.1,1,0.1h3.2l1,0.9h2.1l-1.4-1.3c0.6-0.2,1-0.9,0.9-1.5v-4.6c0-1-0.6-1.7-2-1.8L53.3,47.3z M60.6,47.3v6.4
	c0,1.1,0.6,1.8,2.3,1.9H68v-0.9h-4.2c-1,0-1.3-0.4-1.3-1v-6.3L60.6,47.3z M54.4,48.2h2.4c0.5,0,1,0.4,1.1,0.9v4.6
	c0,0.2,0,0.3-0.2,0.5l-0.5-0.4h-2.1l1,0.9h-1.8c-0.5,0-1-0.4-1.1-0.9v-4.5C53.3,48.7,53.8,48.2,54.4,48.2L54.4,48.2L54.4,48.2z
	 M35,50c0,0,0,3.9,0,4c0,0.8,1,1.5,2.6,1.5h2.9v0.1c0,0.2,0.1,0.8-0.9,0.9H35v0.9h4.8c0.8,0,2.6-0.2,2.6-1.6v-5.7h-1.9v4.6h-2.7
	c-0.9,0-1-0.5-1-0.7v-3.9L35,50z"/>
</svg>
