<svg id="Layer_1" data-name="Layer 1" xmlns="http://www.w3.org/2000/svg" viewBox="0 0 40 40"><defs><style>.cls-1{fill:#4479a1;}.cls-2,.cls-3{fill:#fff;}.cls-2{fill-rule:evenodd;}</style></defs><path class="cls-1" d="M20,0A20,20,0,1,0,40,20,20,20,0,0,0,20,0Z"/><path class="cls-2" d="M24.41,13.5a.86.86,0,0,0-.28,0h0a2,2,0,0,0,.22.27l.15.32h0a.38.38,0,0,0,.14-.33,1,1,0,0,1-.08-.14c0-.07-.13-.1-.18-.16"/><path class="cls-3" d="M13.77,26.7h-.93q0-2.34-.27-4.41h0L11.16,26.7h-.71l-1.4-4.41H9c-.1,1.32-.17,2.79-.19,4.41H8a54.49,54.49,0,0,1,.41-5.53H9.56l1.33,4.06h0l1.34-4.06h1.1c.24,2,.39,3.86.43,5.53"/><path class="cls-3" d="M17.79,22.62a12.5,12.5,0,0,1-1.5,4.46,2,2,0,0,1-1.58,1.07,1.59,1.59,0,0,1-.56-.14v-.49l.38,0a1,1,0,0,0,.65-.22.79.79,0,0,0,.29-.61,4.07,4.07,0,0,0-.22-.94l-1-3.15h.91L15.87,25a3.15,3.15,0,0,1,.2,1.12,15.37,15.37,0,0,0,.84-3.48Z"/><polygon class="cls-3" points="30.11 26.7 27.48 26.7 27.48 21.17 28.37 21.17 28.37 26.02 30.11 26.02 30.11 26.7"/><path class="cls-2" d="M26.79,26.83l-1-.5a1.48,1.48,0,0,0,.25-.25,3.39,3.39,0,0,0,.65-2.25c0-1.83-.72-2.75-2.16-2.75a2,2,0,0,0-1.64.7A3.36,3.36,0,0,0,22.23,24a3.32,3.32,0,0,0,.57,2.14,2,2,0,0,0,1.58.61,2.56,2.56,0,0,0,.73-.09l1.32.77ZM23.5,25.59a3.47,3.47,0,0,1-.33-1.74c0-1.39.42-2.09,1.27-2.09a1.06,1.06,0,0,1,1,.5A3.44,3.44,0,0,1,25.75,24c0,1.4-.43,2.1-1.28,2.1a1,1,0,0,1-1-.5"/><path class="cls-3" d="M21.84,25.17a1.49,1.49,0,0,1-.51,1.15,2.06,2.06,0,0,1-1.39.45,2.73,2.73,0,0,1-1.57-.52l.24-.47a2.65,2.65,0,0,0,1.18.33,1.3,1.3,0,0,0,.79-.22.79.79,0,0,0,.3-.62c0-.33-.23-.61-.65-.84l-1.17-.66a1.34,1.34,0,0,1-.63-1.18,1.36,1.36,0,0,1,.47-1.08,1.77,1.77,0,0,1,1.22-.42,2.55,2.55,0,0,1,1.4.41l-.21.48a2.64,2.64,0,0,0-1.07-.23.92.92,0,0,0-.65.2.67.67,0,0,0-.25.53c0,.32.23.61.66.85s1.19.67,1.19.67a1.3,1.3,0,0,1,.65,1.17"/><path class="cls-2" d="M31.22,19.31a3.08,3.08,0,0,0-1.29.19c-.1,0-.26,0-.28.17s.06.14.11.21a1.53,1.53,0,0,0,.35.41l.43.31c.26.16.55.25.8.41s.3.21.45.32.12.14.21.17v0c-.05-.06-.06-.15-.11-.22l-.2-.19A2.92,2.92,0,0,0,31,20.4c-.21-.15-.68-.35-.77-.6h0a2.56,2.56,0,0,0,.46-.11c.23-.06.43-.05.67-.11l.32-.09v-.06c-.12-.12-.21-.28-.34-.39a8.13,8.13,0,0,0-1.1-.83c-.21-.13-.47-.22-.69-.33s-.22-.06-.27-.13a3.1,3.1,0,0,1-.27-.51c-.19-.37-.38-.78-.55-1.17a6.51,6.51,0,0,0-.34-.76,6.84,6.84,0,0,0-2.59-2.5,3,3,0,0,0-.85-.27l-.5,0a2.49,2.49,0,0,1-.31-.23c-.38-.24-1.36-.76-1.64-.08-.19.44.26.87.42,1.09a2.93,2.93,0,0,1,.34.5c0,.11.06.23.1.35a8.83,8.83,0,0,0,.35.9,3.45,3.45,0,0,0,.25.41c.05.08.15.11.17.23a1.83,1.83,0,0,0-.16.5,3,3,0,0,0,.2,2.25c.1.16.36.53.7.39s.23-.5.32-.83c0-.08,0-.14.05-.19h0l.27.56a4.08,4.08,0,0,0,.87.89c.16.12.28.33.48.4v0h0a.93.93,0,0,0-.15-.13,2.64,2.64,0,0,1-.35-.4,8.86,8.86,0,0,1-.75-1.22c-.11-.21-.2-.43-.29-.64s0-.2-.1-.24a2.44,2.44,0,0,0-.32.45,3.86,3.86,0,0,0-.19,1s0,0,0,0c-.21-.06-.29-.28-.37-.46A2.94,2.94,0,0,1,24,16.23c.05-.14.25-.58.17-.71s-.17-.2-.25-.3a3.62,3.62,0,0,1-.24-.43c-.16-.38-.24-.79-.41-1.17a4.45,4.45,0,0,0-.33-.51,3.25,3.25,0,0,1-.37-.52.31.31,0,0,1,0-.28.11.11,0,0,1,.09-.08c.09-.08.34,0,.43.06a3.39,3.39,0,0,1,.66.33,1.19,1.19,0,0,0,.31.23h.14c.22,0,.46,0,.66.07a4.71,4.71,0,0,1,1,.46,6,6,0,0,1,2.08,2.29,3.57,3.57,0,0,1,.19.45c.14.33.32.67.46,1A4.18,4.18,0,0,0,29,18c.1.14.5.22.68.29a3.85,3.85,0,0,1,.47.19l.66.45c.11.08.44.25.46.38"/></svg>