<svg id="Layer_1" data-name="Layer 1" xmlns="http://www.w3.org/2000/svg" viewBox="0 0 168 168"><defs><style>.cls-1{isolation:isolate;opacity:0.35;}.cls-2{fill:#f2f2f2;}.cls-3{fill:#4479a1;}.cls-4{fill:#333;}.cls-5{fill:#fff;}</style></defs><path class="cls-1" d="M29,168A25,25,0,0,1,4,143V29A25,25,0,0,1,29,4H143a25,25,0,0,1,25,25V143a25,25,0,0,1-25,25Z"/><path class="cls-2" d="M25,164A25,25,0,0,1,0,139V25A25,25,0,0,1,25,0H139a25,25,0,0,1,25,25V139a25,25,0,0,1-25,25Z"/><path class="cls-3" d="M13,139V25A12,12,0,0,1,25,13H139a12,12,0,0,1,12,12V139a12,12,0,0,1-12,12H25A12,12,0,0,1,13,139Z"/><path class="cls-4" d="M139,154H25a15,15,0,0,1-15-15V25A15,15,0,0,1,25,10H139a15,15,0,0,1,15,15V139A15,15,0,0,1,139,154ZM25,16a9,9,0,0,0-9,9V139a9,9,0,0,0,9,9H139a9,9,0,0,0,9-9V25a9,9,0,0,0-9-9Z"/><path class="cls-5" d="M95,53.66a2.22,2.22,0,0,0-2.29,1.45c-.76,1.83,1.12,3.61,1.79,4.55a13.38,13.38,0,0,1,1.41,2.11c.23.48.26,1,.45,1.47a35.68,35.68,0,0,0,1.81,3.85,12,12,0,0,0,1,1.73c.23.32.64.47.7,1a8,8,0,0,0-.64,2.13,12.28,12.28,0,0,0,.83,9.41c.45.72,1.51,2.26,3,1.68,1.27-.52,1-2.12,1.35-3.54.08-.31,0-.55.19-.76v.06l1.15,2.31a16.06,16.06,0,0,0,3.66,3.79c.67.5,1.19,1.37,2.05,1.66v-.06h-.06c-.17-.26-.43-.37-.64-.58a13.72,13.72,0,0,1-1.47-1.67,37.19,37.19,0,0,1-3.14-5.13c-.45-.86-.85-1.81-1.23-2.69-.14-.34-.14-.85-.45-1a12.25,12.25,0,0,0-1.34,1.93,16.59,16.59,0,0,0-.77,4.23c-.12,0-.07,0-.13.07-.89-.23-1.21-1.14-1.54-1.93a12.11,12.11,0,0,1-.25-7.5c.19-.6,1.05-2.47.7-3-.16-.55-.72-.86-1-1.28a9.35,9.35,0,0,1-1-1.79c-.69-1.56-1.33-3.37-2.06-4.94A13.59,13.59,0,0,0,95.55,59,12.75,12.75,0,0,1,94,56.76c-.14-.31-.34-.82-.12-1.14a.49.49,0,0,1,.39-.39c.36-.29,1.4.09,1.79.25a15.58,15.58,0,0,1,2.76,1.42c.42.27.83.81,1.34,1h.58c.91.21,1.92.06,2.75.32a16.56,16.56,0,0,1,4,1.92,24.84,24.84,0,0,1,8.78,9.62c.34.64.49,1.25.78,1.92.58,1.37,1.33,2.78,1.92,4.11a18.85,18.85,0,0,0,2,3.78c.43.58,2.12.9,2.88,1.22a17.88,17.88,0,0,1,1.92.77c1,.58,1.91,1.28,2.83,1.93.45.32,1.85,1,1.92,1.6a12.71,12.71,0,0,0-5.44.77c-.42.18-1.09.18-1.16.7.22.24.26.6.44.9a7.45,7.45,0,0,0,1.48,1.73c.58.43,1.17.9,1.8,1.29,1.09.66,2.33,1,3.39,1.72.62.4,1.26.9,1.86,1.34.31.23.5.58.9.72v-.07c-.21-.26-.26-.62-.45-.89l-.84-.85a13.81,13.81,0,0,0-2.95-2.81c-.87-.63-2.83-1.49-3.19-2.5l-.07-.07a11.94,11.94,0,0,0,1.92-.45c1-.25,1.82-.19,2.81-.44l1.36-.39v-.26c-.5-.51-.86-1.2-1.41-1.67a42.44,42.44,0,0,0-4.62-3.46c-.9-.56-2-.93-3-1.41-.32-.16-.87-.24-1.09-.51a13.28,13.28,0,0,1-1.15-2.18c-.81-1.55-1.6-3.24-2.31-4.87a25.13,25.13,0,0,0-1.41-3.21,28.3,28.3,0,0,0-10.9-10.51A12.71,12.71,0,0,0,103,56.52l-2.12-.13a10.51,10.51,0,0,1-1.28-1A10.54,10.54,0,0,0,95,53.66Zm6.94,7a4.86,4.86,0,0,0-1.15.13v.07h.06a8.53,8.53,0,0,0,.9,1.14c.22.46.42.91.64,1.36l.06-.07a1.57,1.57,0,0,0,.58-1.41c-.16-.16-.18-.38-.32-.57S102.13,60.85,101.9,60.62ZM33.43,87.25a8,8,0,0,0-2.07.39,2.39,2.39,0,0,0-1.86,2.64v15.88h4.21V90.67l5.83,13.24c.72,1.65,1.71,2.24,3.63,2.24s2.88-.59,3.6-2.24L52.61,91v15.16h4.2V90.28a2.38,2.38,0,0,0-1.87-2.64c-3-.94-5-.13-5.89,1.91l-6,13.47L37.27,89.55A3.72,3.72,0,0,0,33.43,87.25Zm51.19,0c-1.66,0-6.82.2-6.82,4.2v2.59c0,1.84,1.62,3.34,5.12,3.71.4,0,.79.06,1.18.06,0,0,4.09-.08,4.2-.06,2.37,0,2.1,1.84,2.1,2.1V102a2,2,0,0,1-2.12,2.1H77.8v2.1H88.32a9,9,0,0,0,3.78-.79c1.77-.81,2.5-1.91,2.5-3.35V99c0-3.23-4-3.36-6.3-3.36H84.1c-1.64,0-1.9-1-2.1-2.1v-2.1c.2-.84.57-2,2-2.1H94.6v-2.1Zm16.24,0c-3.1.43-4.19,2-4.19,4.2V102c0,2,1.14,3.27,3.49,3.91a7.94,7.94,0,0,0,2.17.31l4.68,0h2.74l2.34,2.1h4.73l-3.25-2.93c1.52-.63,2-1.6,2-3.41V91.46c0-2.23-1.45-3.77-4.55-4.2Zm16.84,0v14.61c0,2.53,1.44,4,5.23,4.25.36,0,.72,0,1.07,0h10.5v-2.1h-9.7c-2.17,0-2.9-.91-2.9-2.21V87.26Zm-14.34,2.1h5.41a2.74,2.74,0,0,1,2.6,2.1s0,9.78,0,10.5A1.38,1.38,0,0,1,111,103L109.86,102H105.1l2.34,2.1h-4.08a2.52,2.52,0,0,1-2.49-2.1V91.67A2.34,2.34,0,0,1,103.36,89.36Zm-44.45,4.2c.08.08,0,9,0,9.12,0,1.84,2.36,3.45,6,3.48H71.5v.14c0,.39.29,1.71-2.09,2H58.91v2.1h11c1.85-.06,5.87-.48,5.84-3.69,0-.06,0-13.11,0-13.11H71.5v10.5c-.06,0-5.2,0-6.23,0-2,0-2.2-1.19-2.16-1.63V93.56Z"/></svg>