<svg id="Layer_1" data-name="Layer 1" xmlns="http://www.w3.org/2000/svg" viewBox="0 0 90 90"><defs><style>.cls-1{fill:#010101;isolation:isolate;opacity:0.35;}.cls-2{fill:#f3f3f3;}.cls-3{fill:#777bb4;}.cls-4{fill:#333;}.cls-5{fill:#fff;}</style></defs><circle class="cls-1" cx="46" cy="46" r="44"/><circle class="cls-2" cx="44" cy="44" r="44"/><path class="cls-3" d="M44,6.5A37.5,37.5,0,1,0,81.5,44,37.5,37.5,0,0,0,44,6.5Z"/><path class="cls-4" d="M44,83A39,39,0,1,1,83,44,39.05,39.05,0,0,1,44,83ZM44,8A36,36,0,1,0,80,44,36,36,0,0,0,44,8Z"/><path class="cls-5" d="M35.44,41.56H33.63l-1,5.08h1.61a3.92,3.92,0,0,0,2.38-.6,3.23,3.23,0,0,0,1-2,2.16,2.16,0,0,0-.24-1.91A2.68,2.68,0,0,0,35.44,41.56ZM45,32.9c-12.7,0-23,5.42-23,12.1S32.3,57.1,45,57.1,68,51.68,68,45,57.7,32.9,45,32.9ZM38.75,47.18A4.67,4.67,0,0,1,37,48.24a8.06,8.06,0,0,1-2.46.31H32.27l-.63,3.22H29l2.36-12.12h5.08a4.23,4.23,0,0,1,3.34,1.2,3.77,3.77,0,0,1,.63,3.36,5.41,5.41,0,0,1-.58,1.62A5.73,5.73,0,0,1,38.75,47.18Zm7.71,1.37,1-5.36a1.43,1.43,0,0,0-.14-1.25,1.83,1.83,0,0,0-1.31-.33H44l-1.35,6.94H40l2.36-12.12H45l-.63,3.22h2.34a4.56,4.56,0,0,1,3,.77,2.54,2.54,0,0,1,.5,2.49l-1.09,5.64ZM61,44.21a5.39,5.39,0,0,1-1.66,3,4.83,4.83,0,0,1-1.76,1.06,8.17,8.17,0,0,1-2.47.31H52.88l-.63,3.23H49.61L52,39.65h5.08a4.18,4.18,0,0,1,3.34,1.21A3.75,3.75,0,0,1,61,44.21Zm-5-2.65H54.24l-1,5.08h1.6a3.88,3.88,0,0,0,2.38-.6,3.29,3.29,0,0,0,1.06-2,2.23,2.23,0,0,0-.24-1.91A2.73,2.73,0,0,0,56.05,41.56Z"/></svg>