<?xml version="1.0" encoding="utf-8"?>
<!-- Generator: Adobe Illustrator 26.1.0, SVG Export Plug-In . SVG Version: 6.00 Build 0)  -->
<svg version="1.1" id="Layer_1" xmlns="http://www.w3.org/2000/svg" xmlns:xlink="http://www.w3.org/1999/xlink" x="0px" y="0px"
	 viewBox="0 0 90 90" style="enable-background:new 0 0 90 90;" xml:space="preserve">
<style type="text/css">
	.st0{opacity:0.35;fill:#010101;enable-background:new    ;}
	.st1{fill:#F3F3F3;}
	.st2{fill:#3876AB;}
	.st3{fill:#333333;}
	.st4{fill:#FFFFFF;}
</style>
<circle class="st0" cx="46" cy="46" r="44"/>
<circle class="st1" cx="44" cy="44" r="44"/>
<path class="st2" d="M44,6.5C23.3,6.5,6.5,23.3,6.5,44S23.3,81.5,44,81.5S81.5,64.7,81.5,44S64.7,6.5,44,6.5z"/>
<path class="st3" d="M44,83C22.5,83,5,65.5,5,44S22.5,5,44,5s39,17.5,39,39C83,65.5,65.5,83,44,83z M44,8C24.1,8,8,24.1,8,44
	s16.1,36,36,36s36-16.1,36-36S63.9,8,44,8z"/>
<path class="st4" d="M49.3,22.5l1.7,0.4l1.4,0.5l1.1,0.6l0.9,0.6l0.6,0.6l0.5,0.6l0.3,0.6L56,27l0.1,0.5v0.4v0.2v10.2L56,39.5
	l-0.2,1l-0.4,0.9l-0.5,0.7l-0.6,0.6l-0.6,0.5l-0.7,0.4l-0.7,0.3L51.7,44l-0.6,0.1l-0.5,0.1h-0.4H38.8l-1.3,0.1l-1.1,0.3l-1,0.4
	l-0.8,0.5L34,46.1l-0.5,0.7l-0.4,0.7l-0.3,0.7l-0.2,0.7l-0.1,0.6L32.4,50v0.4v5.8h-4.2l-0.4,0L27.2,56l-0.6-0.2l-0.7-0.3L25.2,55
	l-0.7-0.7l-0.7-0.9l-0.6-1.1L22.7,51l-0.4-1.7l-0.3-2L22,45l0.1-2.3l0.3-2l0.5-1.7l0.6-1.4l0.7-1.1l0.8-0.8l0.8-0.6l0.8-0.5l0.8-0.3
	l0.7-0.2l0.6-0.1H45v-1.6H33.9v-5.2v-0.7l0.1-0.7l0.2-0.6l0.3-0.5l0.5-0.5l0.6-0.4l0.7-0.4l0.8-0.4l1-0.3l1.1-0.2l1.2-0.2l1.4-0.1
	l1.5-0.1h1.6l2.4,0.1L49.3,22.5z M37.3,26.2l-0.4,0.6l-0.2,0.8l0.1,0.8l0.4,0.6l0.6,0.4l0.8,0.2l0.8-0.2l0.6-0.4l0.4-0.6l0.2-0.8
	l-0.2-0.8l-0.4-0.6l-0.6-0.4l-0.8-0.2l-0.8,0.2L37.3,26.2z M62.3,33.8l0.5,0.1l0.6,0.2l0.7,0.3l0.7,0.5l0.7,0.7l0.7,0.9l0.6,1.1
	l0.5,1.4l0.4,1.7l0.3,2l0.1,2.3l-0.1,2.3l-0.3,2L67.1,51l-0.6,1.3l-0.7,1.1L65,54.3l-0.8,0.6l-0.8,0.4l-0.8,0.3L62,55.9L61.4,56
	L61,56h-0.3H45v1.6h11.1v5.3v0.7L56,64.2l-0.2,0.6l-0.3,0.6L55,65.8l-0.6,0.5l-0.7,0.4l-0.8,0.3l-1,0.3l-1.1,0.2l-1.2,0.2l-1.3,0.1
	l-1.5,0.1h-1.6l-2.4-0.1l-2-0.3L39,67.2l-1.4-0.5l-1.1-0.6l-0.9-0.6L35,64.8l-0.5-0.7l-0.3-0.6L34,63l-0.1-0.5v-0.4V51.7l0.1-1.2
	l0.2-1l0.4-0.9l0.5-0.7l0.6-0.6l0.6-0.5l0.6-0.4l0.7-0.3l0.6-0.2l0.6-0.1l0.5-0.1h0.4H40h11.1l1.3-0.1l1.1-0.3l1-0.4l0.8-0.5
	l0.6-0.6l0.5-0.7l0.4-0.7l0.3-0.7l0.2-0.7l0.1-0.6l0.1-0.5v-0.4v-5.9h4.2L62.3,33.8z M49.9,61l-0.4,0.6l-0.2,0.8l0.2,0.8l0.4,0.6
	l0.6,0.4l0.8,0.2l0.8-0.2l0.6-0.4l0.4-0.6l0.2-0.8l-0.2-0.8L52.7,61l-0.6-0.4l-0.8-0.2l-0.8,0.2L49.9,61z"/>
</svg>
