<svg id="Layer_1" data-name="Layer 1" xmlns="http://www.w3.org/2000/svg" viewBox="0 0 40 40"><defs><style>.cls-1{fill:#3776ab;}.cls-2{fill:#fff;}</style></defs><path class="cls-1" d="M20,0A20,20,0,1,0,40,20,20,20,0,0,0,20,0Z"/><path class="cls-2" d="M22.25,8.18l.9.2.73.26.59.3.45.32.34.34.25.34.16.33.1.3,0,.26,0,.2V16.5l-.05.63-.13.55-.21.46-.26.38-.3.31-.33.25-.35.19-.35.14-.33.1-.3.07-.26,0-.21,0h-6l-.69.05-.59.14-.5.22-.41.27-.33.32L14,21l-.2.36-.15.37-.1.35-.07.32,0,.27,0,.21v3.06H11.17l-.21,0-.28-.07-.32-.12L10,25.53l-.36-.26-.36-.36-.35-.46-.32-.59-.28-.73-.21-.88L8,21.2l0-1.23L8,18.75l.16-1,.24-.87.32-.71.36-.57.4-.44.42-.33.42-.24.4-.16.36-.1.32,0H20v-.83H14.18V10.66l0-.37,0-.34.11-.31.17-.28.25-.26L15,8.87l.38-.2.44-.18.51-.15L17,8.22l.64-.1.71-.06.77,0,.84,0,1.27.05Zm-6.3,2-.23.33-.08.41.08.41.23.34.33.22.41.09.41-.09.33-.22.23-.34.08-.41-.08-.41-.23-.33-.33-.22-.41-.09-.41.09ZM29,14.11l.28.06.32.12.35.18.36.27.36.35.35.47.32.59.28.73.21.88.14,1L32.06,20,32,21.26l-.16,1-.24.86-.32.71-.36.57-.4.45-.42.33-.42.24-.4.16-.36.09-.32.05-.24,0H20v.82h5.84v2.76l0,.36-.05.34-.11.31-.17.29-.25.25-.31.24-.38.2-.44.17-.51.15-.58.13-.64.09L21.7,32l-.77,0h-.84l-1.27,0-1.07-.14-.9-.2-.73-.25-.59-.3-.45-.33-.34-.34-.25-.34-.16-.33-.1-.3,0-.25,0-.2V23.51l.05-.64.13-.54.21-.46.26-.38.3-.32.33-.24.35-.2.35-.14.33-.1.3-.06.26,0,.21,0h6l.69-.05.59-.14L25,20l.41-.28.33-.32L26,19l.2-.36.15-.36.1-.35.07-.32,0-.28,0-.21V14.07h2.23ZM22.57,28.36l-.23.33-.08.41.08.41.23.33.33.23.41.08.41-.08.33-.23.23-.33.08-.41-.08-.41-.23-.33-.33-.23-.41-.08-.41.08Z"/></svg>