<svg id="Layer_1" data-name="Layer 1" xmlns="http://www.w3.org/2000/svg" viewBox="0 0 168 168"><defs><style>.cls-1{isolation:isolate;opacity:0.35;}.cls-2{fill:#f2f2f2;}.cls-3{fill:#3776ab;}.cls-4{fill:#333;}.cls-5{fill:#fff;}</style></defs><path class="cls-1" d="M29,168A25,25,0,0,1,4,143V29A25,25,0,0,1,29,4H143a25,25,0,0,1,25,25V143a25,25,0,0,1-25,25Z"/><path class="cls-2" d="M25,164A25,25,0,0,1,0,139V25A25,25,0,0,1,25,0H139a25,25,0,0,1,25,25V139a25,25,0,0,1-25,25Z"/><path class="cls-3" d="M13,139V25A12,12,0,0,1,25,13H139a12,12,0,0,1,12,12V139a12,12,0,0,1-12,12H25A12,12,0,0,1,13,139Z"/><path class="cls-4" d="M139,154H25a15,15,0,0,1-15-15V25A15,15,0,0,1,25,10H139a15,15,0,0,1,15,15V139A15,15,0,0,1,139,154ZM25,16a9,9,0,0,0-9,9V139a9,9,0,0,0,9,9H139a9,9,0,0,0,9-9V25a9,9,0,0,0-9-9Z"/><path class="cls-5" d="M91.84,30.29l3.94.87L99,32.3l2.59,1.31,2,1.4L105,36.5l1.1,1.49.7,1.44.43,1.31.18,1.14.09.88-.05.56V66.69l-.22,2.75-.56,2.41-.92,2-1.14,1.66-1.31,1.36L101.86,78l-1.53.83-1.53.61-1.44.44-1.32.3-1.13.18-.92.09H67.87l-3,.21-2.58.62-2.19,1L58.29,83.4l-1.45,1.4-1.18,1.53-.87,1.58-.66,1.62-.44,1.53-.3,1.4-.18,1.18-.09.92v13.38H43.37l-.92-.13-1.23-.3-1.4-.53-1.53-.79-1.57-1.13-1.58-1.58-1.53-2-1.4-2.58L31,95.69l-.92-3.85-.61-4.59-.22-5.38.26-5.34L30.2,72l1.05-3.8,1.4-3.11,1.57-2.5L36,60.65l1.84-1.44,1.84-1.05,1.75-.7L43,57l1.4-.22,1.05,0h.7l.27,0h35.7V53.17H56.54l0-12-.08-1.62L56.62,38l.49-1.35.74-1.23,1.09-1.14,1.36-1L62,32.43l1.93-.79L66.12,31l2.54-.53,2.8-.43,3.1-.27,3.37-.17,3.68-.09,5.55.22ZM64.28,39l-1,1.44-.35,1.8L63.27,44l1,1.49,1.44,1,1.8.39,1.79-.39,1.45-1,1-1.49.35-1.79-.35-1.8-1-1.44-1.45-1-1.79-.4-1.8.4Zm57.27,17.28,1.23.26,1.4.53,1.53.79L127.28,59l1.58,1.53,1.53,2,1.4,2.59L133,68.35l.92,3.85.61,4.55.22,5.38-.26,5.38-.7,4.55-1.05,3.76-1.4,3.11-1.57,2.49-1.75,2-1.84,1.45-1.84,1-1.75.7L121,107l-1.4.22-1,.09-.7-.05h-36v3.59h25.55l.05,12.08.08,1.57-.21,1.49-.49,1.35-.74,1.27-1.09,1.1-1.36,1.05-1.66.87-1.93.75-2.23.65-2.54.57-2.8.39-3.1.31-3.37.18-3.68,0-5.55-.18-4.68-.61-3.94-.87L65,131.74l-2.59-1.31-2-1.44L59,127.5,57.89,126l-.7-1.44-.43-1.31-.18-1.1-.09-.87,0-.57V97.36l.22-2.8.57-2.37.91-2,1.14-1.66,1.31-1.4,1.45-1.05,1.53-.88,1.53-.61,1.44-.44L68,83.88l1.13-.17.92-.09.57-.05H96.13l3-.21,2.58-.62,2.19-.92,1.79-1.22,1.45-1.4,1.18-1.53.87-1.58.66-1.57.44-1.53.3-1.4.18-1.23.09-.92V56.06H120l.61,0ZM93.24,118.58l-1,1.44-.35,1.79.35,1.8,1,1.44,1.45,1,1.79.35,1.8-.35,1.44-1,1-1.44.35-1.8-.35-1.79-1-1.44-1.44-1-1.8-.35-1.79.35Z"/></svg>