<svg id="Layer_1" data-name="Layer 1" xmlns="http://www.w3.org/2000/svg" viewBox="0 0 168 168"><defs><style>.cls-1{isolation:isolate;opacity:0.35;}.cls-2{fill:#f2f2f2;}.cls-3{fill:#c69;}.cls-4{fill:#333;}.cls-5{fill:#fff;}</style></defs><path class="cls-1" d="M29,168A25,25,0,0,1,4,143V29A25,25,0,0,1,29,4H143a25,25,0,0,1,25,25V143a25,25,0,0,1-25,25Z"/><path class="cls-2" d="M25,164A25,25,0,0,1,0,139V25A25,25,0,0,1,25,0H139a25,25,0,0,1,25,25V139a25,25,0,0,1-25,25Z"/><path class="cls-3" d="M13,139V25A12,12,0,0,1,25,13H139a12,12,0,0,1,12,12V139a12,12,0,0,1-12,12H25A12,12,0,0,1,13,139Z"/><path class="cls-4" d="M139,154H25a15,15,0,0,1-15-15V25A15,15,0,0,1,25,10H139a15,15,0,0,1,15,15V139A15,15,0,0,1,139,154ZM25,16a9,9,0,0,0-9,9V139a9,9,0,0,0,9,9H139a9,9,0,0,0,9-9V25a9,9,0,0,0-9-9Z"/><path class="cls-5" d="M82,29.5A52.5,52.5,0,1,1,29.5,82,52.51,52.51,0,0,1,82,29.5Zm-10.43,70a13.44,13.44,0,0,1-.11,7.84l-.28.79c-.11.27-.23.52-.35.77a14.55,14.55,0,0,1-2.42,3.54c-3.06,3.32-7.32,4.58-9.15,3.52s-1-5.84,2.56-9.58a35.87,35.87,0,0,1,9.27-6.6h0ZM114.93,52c-2.37-9.33-17.84-12.39-32.47-7.19-8.71,3.09-18.13,7.95-24.91,14.29-8.07,7.53-9.35,14.09-8.82,16.84,1.87,9.67,15.13,16,20.58,20.69v0c-1.61.78-13.37,6.68-16.13,12.79-3,6.43.46,11,2.69,11.62,6.89,1.91,14-1.58,17.79-7.22s3.35-12.6,1.76-16.08a20.42,20.42,0,0,1,8-.45c9.19,1,11,6.82,10.63,9.18a6.28,6.28,0,0,1-3,4.13c-.65.4-.85.53-.79.8s.4.39.92.32a7.27,7.27,0,0,0,5-6.43c.2-5.65-5.19-11.94-14.76-11.81-3.94.07-6.44.39-8.21,1.12a1.44,1.44,0,0,0-.46-.46c-5.9-6.37-16.86-10.83-16.4-19.3.13-3.08,1.24-11.21,21-21.06,16.21-8.07,29.14-5.84,31.37-.92,3.21,7-6.89,20.08-23.76,22-6.43.72-9.78-1.76-10.64-2.69s-1-1.05-1.37-.85c-.52.27-.2,1.12,0,1.64.53,1.32,2.56,3.61,6.11,4.79,3.08,1,10.63,1.58,19.69-2,10.16-3.94,18.1-14.9,15.81-24.09Z"/></svg>