<svg id="Layer_1" data-name="Layer 1" xmlns="http://www.w3.org/2000/svg" viewBox="0 0 90 90"><defs><style>.cls-1{fill:#010101;isolation:isolate;opacity:0.35;}.cls-2{fill:#f3f3f3;}.cls-3{fill:#c69;}.cls-4{fill:#333;}.cls-5{fill:#fff;}</style></defs><circle class="cls-1" cx="46" cy="46" r="44"/><circle class="cls-2" cx="44" cy="44" r="44"/><path class="cls-3" d="M44,6.5A37.5,37.5,0,1,0,81.5,44,37.5,37.5,0,0,0,44,6.5Z"/><path class="cls-4" d="M44,83A39,39,0,1,1,83,44,39.05,39.05,0,0,1,44,83ZM44,8A36,36,0,1,0,80,44,36,36,0,0,0,44,8Z"/><path class="cls-5" d="M45,22A23,23,0,1,1,22,45,23,23,0,0,1,45,22ZM40.43,52.67a5.81,5.81,0,0,1,0,3.43l-.12.35q-.07.18-.15.33a6.93,6.93,0,0,1-1.06,1.56c-1.34,1.45-3.21,2-4,1.54s-.44-2.56,1.12-4.2a15.72,15.72,0,0,1,4.06-2.89h0Zm19-20.81c-1-4.09-7.82-5.43-14.23-3.15A32.11,32.11,0,0,0,34.29,35c-3.54,3.3-4.1,6.17-3.87,7.38.82,4.23,6.63,7,9,9.06h0c-.7.34-5.86,2.93-7.07,5.6-1.31,2.82.21,4.82,1.18,5.09a7.27,7.27,0,0,0,7.8-3.16,7.8,7.8,0,0,0,.77-7,8.79,8.79,0,0,1,3.5-.2c4,.44,4.82,3,4.66,4A2.74,2.74,0,0,1,49,57.53c-.28.17-.37.23-.34.35s.17.17.4.14a3.17,3.17,0,0,0,2.19-2.82C51.3,52.73,48.94,50,44.75,50a10.27,10.27,0,0,0-3.6.49.64.64,0,0,0-.2-.2c-2.59-2.79-7.39-4.75-7.19-8.46.06-1.35.55-4.91,9.2-9.22,7.1-3.54,12.77-2.56,13.75-.41,1.4,3.07-3,8.8-10.41,9.64-2.82.32-4.29-.77-4.66-1.18s-.44-.46-.6-.37-.09.49,0,.72a4.42,4.42,0,0,0,2.67,2.1,14,14,0,0,0,8.63-.88c4.45-1.72,7.93-6.53,6.92-10.55Z"/></svg>