<svg id="Layer_1" data-name="Layer 1" xmlns="http://www.w3.org/2000/svg" viewBox="0 0 40 40"><defs><style>.cls-1{fill:#c69;}.cls-2{fill:#fff;}</style></defs><path class="cls-1" d="M20,0A20,20,0,1,0,40,20,20,20,0,0,0,20,0Z"/><path class="cls-2" d="M20,8A12,12,0,1,1,8,20,12,12,0,0,1,20,8ZM17.61,24a3,3,0,0,1,0,1.79l-.06.18a1.42,1.42,0,0,0-.08.18,3.36,3.36,0,0,1-.56.81c-.7.76-1.67,1-2.09.8s-.22-1.33.59-2.19a8.11,8.11,0,0,1,2.12-1.51h0Zm9.92-10.86C27,11,23.45,10.3,20.1,11.49a16.93,16.93,0,0,0-5.69,3.27c-1.84,1.72-2.13,3.22-2,3.85.42,2.21,3.45,3.65,4.7,4.73h0c-.37.18-3.06,1.53-3.69,2.93s.11,2.52.62,2.65a3.78,3.78,0,0,0,4.06-1.65,4.15,4.15,0,0,0,.41-3.67,4.57,4.57,0,0,1,1.83-.11c2.1.24,2.52,1.56,2.43,2.1a1.46,1.46,0,0,1-.68.95c-.15.09-.19.12-.18.18s.09.09.21.07a1.65,1.65,0,0,0,1.14-1.47c.05-1.29-1.18-2.73-3.37-2.7a5.42,5.42,0,0,0-1.88.26.36.36,0,0,0-.1-.11c-1.35-1.45-3.86-2.47-3.75-4.41,0-.7.28-2.56,4.8-4.81,3.7-1.85,6.66-1.33,7.17-.21.73,1.6-1.58,4.59-5.43,5a2.87,2.87,0,0,1-2.43-.61c-.21-.23-.24-.24-.32-.19s0,.25,0,.37a2.33,2.33,0,0,0,1.4,1.1,7.49,7.49,0,0,0,4.5-.45c2.32-.9,4.14-3.41,3.61-5.51Z"/></svg>