<svg id="Layer_1" data-name="Layer 1" xmlns="http://www.w3.org/2000/svg" viewBox="0 0 168 168"><defs><style>.cls-1{isolation:isolate;opacity:0.35;}.cls-2{fill:#f2f2f2;}.cls-3{fill:#6db33f;}.cls-4{fill:#333;}.cls-5{fill:#fff;}</style></defs><path class="cls-1" d="M29,168A25,25,0,0,1,4,143V29A25,25,0,0,1,29,4H143a25,25,0,0,1,25,25V143a25,25,0,0,1-25,25Z"/><path class="cls-2" d="M25,164A25,25,0,0,1,0,139V25A25,25,0,0,1,25,0H139a25,25,0,0,1,25,25V139a25,25,0,0,1-25,25Z"/><path class="cls-3" d="M13,139V25A12,12,0,0,1,25,13H139a12,12,0,0,1,12,12V139a12,12,0,0,1-12,12H25A12,12,0,0,1,13,139Z"/><path class="cls-4" d="M139,154H25a15,15,0,0,1-15-15V25A15,15,0,0,1,25,10H139a15,15,0,0,1,15,15V139A15,15,0,0,1,139,154ZM25,16a9,9,0,0,0-9,9V139a9,9,0,0,0,9,9H139a9,9,0,0,0,9-9V25a9,9,0,0,0-9-9Z"/><path class="cls-5" d="M139,75.69l-23-39.88A13.94,13.94,0,0,0,105,29.5H59A14,14,0,0,0,48,35.81L25,75.69a14,14,0,0,0,0,12.59l23,39.91A14,14,0,0,0,59,134.5H105A14,14,0,0,0,116,128.19l23-39.91a14,14,0,0,0,0-12.59ZM77,51.56a4.75,4.75,0,0,1,9.5,0V79.94a4.75,4.75,0,0,1-9.5,0Zm4.75,60.58a32.2,32.2,0,0,1-19.2-58,4.23,4.23,0,0,1,5.91.85v0a4.22,4.22,0,0,1-.85,5.9l0,0a23.75,23.75,0,1,0,28.23-.07,4.23,4.23,0,0,1,5-6.81,32.21,32.21,0,0,1-19.1,58.14Z"/></svg>