<svg id="Layer_1" data-name="Layer 1" xmlns="http://www.w3.org/2000/svg" viewBox="0 0 40 40"><defs><style>.cls-1{fill:#6db33f;}.cls-2{fill:#fff;}</style></defs><path class="cls-1" d="M20,0A20,20,0,1,0,40,20,20,20,0,0,0,20,0Z"/><path class="cls-2" d="M31.69,18.71,27,10.52a2.85,2.85,0,0,0-2.24-1.29H15.27A2.87,2.87,0,0,0,13,10.52L8.31,18.71a2.86,2.86,0,0,0,0,2.58L13,29.48a2.87,2.87,0,0,0,2.24,1.29h9.46A2.89,2.89,0,0,0,27,29.48l4.72-8.19a2.86,2.86,0,0,0,0-2.58ZM19,13.75a1,1,0,0,1,1.94,0v5.83a1,1,0,1,1-1.94,0Zm1,12.43A6.61,6.61,0,0,1,16,14.27a.86.86,0,0,1,1.21.18h0a.87.87,0,0,1-.18,1.21h0a4.87,4.87,0,1,0,7.78,3.91,4.91,4.91,0,0,0-2-3.93.85.85,0,0,1-.18-1.21.87.87,0,0,1,1.21-.19A6.61,6.61,0,0,1,20,26.18Z"/></svg>