<svg id="Layer_1" data-name="Layer 1" xmlns="http://www.w3.org/2000/svg" viewBox="0 0 90 90"><defs><style>.cls-1{fill:#010101;isolation:isolate;opacity:0.35;}.cls-2{fill:#f3f3f3;}.cls-3{fill:#6bb344;}.cls-4{fill:#333;}.cls-5{fill:#fff;}</style></defs><circle class="cls-1" cx="46" cy="46" r="44"/><circle class="cls-2" cx="44" cy="44" r="44"/><path class="cls-3" d="M44,6.5A37.5,37.5,0,1,0,81.5,44,37.5,37.5,0,0,0,44,6.5Z"/><path class="cls-4" d="M44,83A39,39,0,1,1,83,44,39.05,39.05,0,0,1,44,83ZM44,8A36,36,0,1,0,80,44,36,36,0,0,0,44,8Z"/><path class="cls-5" d="M63.88,24.71A20,20,0,0,1,61.42,29a22.93,22.93,0,0,0-33,31.88c.3.32.61.62.93.91l.85.76a22.91,22.91,0,0,0,37.63-15.9c.66-5.77-1.09-13.16-4-22ZM32.69,62a2,2,0,1,1-.28-2.75A2,2,0,0,1,32.69,62Zm31.05-6.87c-5.63,7.53-17.75,5-25.46,5.35,0,0-1.38.09-2.75.28,0,0,.52-.23,1.18-.47,5.45-1.89,8-2.27,11.31-4C54.22,53.15,60.43,46.2,61.65,39c-2.36,6.91-9.56,12.88-16.08,15.29A112.6,112.6,0,0,1,33,57.56l-.34-.19C27.15,54.67,27,42.74,37,38.91c4.4-1.71,8.57-.76,13.34-1.89,5.07-1.19,10.94-5,13.31-9.94C66.29,35.07,69.5,47.47,63.74,55.14Z"/></svg>