<svg id="Layer_1" data-name="Layer 1" xmlns="http://www.w3.org/2000/svg" viewBox="0 0 40 40"><defs><style>.cls-1{fill:#6db33f;}.cls-2{fill:#fff;}</style></defs><path class="cls-1" d="M20,0A20,20,0,1,0,40,20,20,20,0,0,0,20,0Z"/><path class="cls-2" d="M29.85,9.41a10.22,10.22,0,0,1-1.28,2.25A12,12,0,0,0,11.36,28.3c.16.16.32.32.49.47l.45.4a12,12,0,0,0,19.63-8.3c.34-3-.57-6.86-2.08-11.46ZM13.58,28.87a1,1,0,1,1-.15-1.43A1,1,0,0,1,13.58,28.87Zm16.2-3.58c-2.94,3.93-9.26,2.6-13.29,2.79,0,0-.71.05-1.43.15,0,0,.27-.12.62-.25,2.84-1,4.17-1.18,5.9-2.07,3.24-1.65,6.47-5.28,7.11-9-1.23,3.61-5,6.72-8.39,8a58.23,58.23,0,0,1-6.57,1.7l-.18-.1c-2.86-1.4-3-7.63,2.28-9.63,2.29-.89,4.47-.39,7-1a10.81,10.81,0,0,0,6.94-5.19C31.11,14.82,32.79,21.29,29.78,25.29Z"/></svg>