<svg id="Layer_1" data-name="Layer 1" xmlns="http://www.w3.org/2000/svg" viewBox="0 0 168 168"><defs><style>.cls-1{isolation:isolate;opacity:0.35;}.cls-2{fill:#f2f2f2;}.cls-3{fill:#6db33f;}.cls-4{fill:#333;}.cls-5{fill:#fff;}</style></defs><path class="cls-1" d="M29,168A25,25,0,0,1,4,143V29A25,25,0,0,1,29,4H143a25,25,0,0,1,25,25V143a25,25,0,0,1-25,25Z"/><path class="cls-2" d="M25,164A25,25,0,0,1,0,139V25A25,25,0,0,1,25,0H139a25,25,0,0,1,25,25V139a25,25,0,0,1-25,25Z"/><path class="cls-3" d="M13,139V25A12,12,0,0,1,25,13H139a12,12,0,0,1,12,12V139a12,12,0,0,1-12,12H25A12,12,0,0,1,13,139Z"/><path class="cls-4" d="M139,154H25a15,15,0,0,1-15-15V25A15,15,0,0,1,25,10H139a15,15,0,0,1,15,15V139A15,15,0,0,1,139,154ZM25,16a9,9,0,0,0-9,9V139a9,9,0,0,0,9,9H139a9,9,0,0,0,9-9V25a9,9,0,0,0-9-9Z"/><path class="cls-5" d="M125.16,35.63a45.57,45.57,0,0,1-5.63,9.85,52.41,52.41,0,1,0-75.35,72.87c.69.72,1.4,1.41,2.13,2.08l1.94,1.73a52.36,52.36,0,0,0,86-36.34c1.52-13.19-2.49-30.07-9.08-50.19ZM53.88,120.87a4.46,4.46,0,1,1-.65-6.28A4.57,4.57,0,0,1,53.88,120.87Zm70.95-15.69c-12.87,17.2-40.56,11.36-58.19,12.23,0,0-3.14.21-6.27.64,0,0,1.19-.54,2.7-1.08,12.44-4.32,18.28-5.19,25.85-9.08,14.17-7.25,28.34-23.15,31.15-39.59-5.41,15.79-21.85,29.42-36.77,34.94C73,107,54.53,110.7,54.53,110.7l-.76-.43c-12.55-6.17-13-33.43,9.95-42.19,10.06-3.89,19.58-1.73,30.5-4.32,11.58-2.71,25-11.36,30.4-22.72C130.67,59.32,138,87.66,124.83,105.18Z"/></svg>