<svg id="Layer_1" data-name="Layer 1" xmlns="http://www.w3.org/2000/svg" viewBox="0 0 90 90"><defs><style>.cls-1{fill:#010101;isolation:isolate;opacity:0.35;}.cls-2{fill:#f3f3f3;}.cls-3{fill:#6bb344;}.cls-4{fill:#333;}.cls-5{fill:#fff;}</style></defs><circle class="cls-1" cx="46" cy="46" r="44"/><circle class="cls-2" cx="44" cy="44" r="44"/><path class="cls-3" d="M44,6.5A37.5,37.5,0,1,0,81.5,44,37.5,37.5,0,0,0,44,6.5Z"/><path class="cls-4" d="M44,83A39,39,0,1,1,83,44,39.05,39.05,0,0,1,44,83ZM44,8A36,36,0,1,0,80,44,36,36,0,0,0,44,8Z"/><path class="cls-5" d="M67.41,42.52l-9-15.68A5.48,5.48,0,0,0,54,24.36H36a5.5,5.5,0,0,0-4.33,2.48l-9,15.68a5.47,5.47,0,0,0,0,4.95l9,15.69A5.5,5.5,0,0,0,36,65.64H54a5.5,5.5,0,0,0,4.33-2.48l9-15.69A5.47,5.47,0,0,0,67.41,42.52ZM43,33a1.87,1.87,0,0,1,3.74,0V44.19a1.87,1.87,0,0,1-3.74,0ZM44.9,56.85a12.66,12.66,0,0,1-7.55-22.8,1.67,1.67,0,0,1,2.33.33h0a1.67,1.67,0,0,1-.34,2.32h0a9.34,9.34,0,1,0,11.1,0,1.67,1.67,0,0,1,2-2.68A12.67,12.67,0,0,1,44.9,56.85Z"/></svg>