<svg id="svg" version="1.1" xmlns="http://www.w3.org/2000/svg" xmlns:xlink="http://www.w3.org/1999/xlink" width="400" height="400.7835455435847" viewBox="0, 0, 400,400.7835455435847"><g id="svgg"><path id="path0" d="M334.688 62.194 C 305.958 96.413,269.212 131.862,229.971 163.214 C 206.521 181.950,192.525 192.157,149.461 221.928 C 113.902 246.512,103.041 258.894,102.891 275.024 C 102.816 283.057,104.699 287.403,110.666 292.966 C 127.758 308.902,153.979 312.796,178.046 302.973 C 200.008 294.010,218.352 277.890,238.832 249.559 C 263.489 215.450,279.303 186.524,311.653 116.357 C 325.939 85.371,331.645 73.242,336.584 63.369 C 338.713 59.114,340.397 55.632,340.326 55.632 C 340.255 55.632,337.718 58.585,334.688 62.194 " stroke="none" fill="#e4e5e0" fill-rule="evenodd"></path><path id="path1" d="M21.003 0.775 C 12.978 2.937,6.315 8.446,2.748 15.867 C -0.308 22.225,-0.044 3.794,0.083 201.567 L 0.196 378.648 1.401 381.847 C 4.662 390.502,10.842 396.573,19.374 399.505 L 22.527 400.588 200.000 400.588 L 377.473 400.588 380.626 399.505 C 389.101 396.593,395.359 390.444,398.599 381.847 L 399.804 378.648 399.917 201.567 C 400.044 3.794,400.308 22.225,397.252 15.867 C 393.627 8.325,386.556 2.600,378.427 0.625 C 374.121 -0.422,24.899 -0.275,21.003 0.775 M337.193 62.543 C 332.205 72.514,325.699 86.334,312.041 115.965 C 277.604 190.678,258.106 225.546,232.186 258.766 C 196.562 304.424,154.728 320.065,120.545 300.507 C 107.935 293.292,102.644 285.769,102.644 275.055 C 102.644 258.284,113.188 246.793,155.338 217.630 C 204.582 183.559,228.926 165.033,258.570 139.073 C 287.701 113.562,318.612 81.987,338.253 57.677 C 341.486 53.675,341.376 54.180,337.193 62.543 M308.272 80.411 C 274.674 116.903,230.071 155.591,183.741 188.429 C 178.462 192.171,171.499 197.116,168.266 199.418 C 165.034 201.720,158.335 206.391,153.379 209.797 C 108.937 240.343,96.052 254.087,95.972 271.034 C 95.931 279.544,88.051 257.850,86.545 245.083 C 82.419 210.097,100.476 187.587,146.470 170.379 C 207.967 147.370,253.567 121.613,307.904 79.192 C 310.150 77.439,312.065 76.004,312.159 76.004 C 312.253 76.004,310.504 77.987,308.272 80.411 " stroke="none" fill="#045c0c" fill-rule="evenodd"></path><path id="path2" d="M300.671 88.247 L 298.727 90.304 300.784 88.359 C 302.695 86.553,303.020 86.190,302.728 86.190 C 302.666 86.190,301.740 87.116,300.671 88.247 M304.016 95.788 C 303.064 96.758,302.374 97.551,302.481 97.551 C 302.589 97.551,303.456 96.758,304.407 95.788 C 305.359 94.819,306.050 94.025,305.942 94.025 C 305.834 94.025,304.967 94.819,304.016 95.788 M277.944 110.970 L 276.396 112.635 278.061 111.086 C 279.609 109.646,279.906 109.305,279.609 109.305 C 279.545 109.305,278.796 110.054,277.944 110.970 M286.959 112.929 L 285.015 114.985 287.071 113.041 C 288.983 111.235,289.308 110.872,289.016 110.872 C 288.954 110.872,288.028 111.797,286.959 112.929 M270.886 117.630 L 269.736 118.903 271.009 117.752 C 271.709 117.119,272.282 116.547,272.282 116.479 C 272.282 116.176,271.959 116.443,270.886 117.630 M265.793 122.331 L 264.643 123.604 265.916 122.454 C 266.616 121.821,267.189 121.248,267.189 121.180 C 267.189 120.878,266.866 121.144,265.793 122.331 M114.961 238.688 L 113.810 239.961 115.083 238.810 C 116.270 237.738,116.537 237.414,116.234 237.414 C 116.167 237.414,115.594 237.987,114.961 238.688 M115.953 248.286 L 113.418 250.930 116.063 248.395 C 118.519 246.040,118.886 245.642,118.598 245.642 C 118.538 245.642,117.348 246.832,115.953 248.286 M104.974 248.678 L 103.624 250.147 105.093 248.797 C 106.460 247.540,106.742 247.209,106.443 247.209 C 106.378 247.209,105.717 247.870,104.974 248.678 M95.710 271.499 C 95.710 272.684,95.783 273.168,95.873 272.576 C 95.963 271.983,95.963 271.014,95.873 270.421 C 95.783 269.829,95.710 270.313,95.710 271.499 M215.475 277.571 C 214.523 278.541,213.833 279.334,213.941 279.334 C 214.048 279.334,214.915 278.541,215.867 277.571 C 216.818 276.601,217.509 275.808,217.401 275.808 C 217.293 275.808,216.427 276.601,215.475 277.571 " stroke="none" fill="#5c8f60" fill-rule="evenodd"></path><path id="path3" d="M309.886 77.974 C 309.653 78.411,309.306 78.672,309.116 78.555 C 308.926 78.438,308.679 78.492,308.565 78.675 C 308.108 79.414,309.545 78.945,310.345 78.093 C 310.818 77.591,311.003 77.179,310.758 77.179 C 310.512 77.179,310.120 77.537,309.886 77.974 M304.778 83.741 L 303.428 85.211 304.897 83.860 C 306.265 82.604,306.546 82.272,306.247 82.272 C 306.182 82.272,305.521 82.933,304.778 83.741 M294.215 94.711 L 289.716 99.314 294.319 94.815 C 298.595 90.636,299.100 90.108,298.818 90.108 C 298.761 90.108,296.689 92.179,294.215 94.711 M283.440 105.485 L 279.530 109.500 283.546 105.590 C 285.754 103.439,287.561 101.632,287.561 101.574 C 287.561 101.291,287.072 101.755,283.440 105.485 M273.635 114.887 L 272.086 116.552 273.751 115.004 C 275.300 113.564,275.596 113.222,275.300 113.222 C 275.236 113.222,274.487 113.972,273.635 114.887 M102.434 195.593 L 100.490 197.649 102.547 195.705 C 103.678 194.636,104.603 193.710,104.603 193.648 C 104.603 193.356,104.240 193.681,102.434 195.593 M110.088 243.095 C 108.483 244.711,107.258 246.033,107.365 246.033 C 107.473 246.033,108.875 244.711,110.480 243.095 C 112.085 241.479,113.310 240.157,113.203 240.157 C 113.095 240.157,111.693 241.479,110.088 243.095 " stroke="none" fill="#85987c" fill-rule="evenodd"></path><path id="path4" d="M308.521 78.983 C 305.830 81.255,283.744 97.714,277.767 101.902 C 235.557 131.479,197.417 151.515,148.164 169.989 C 112.521 183.357,96.309 196.395,89.366 217.272 C 84.033 233.310,85.878 253.923,94.093 270.089 L 95.467 272.793 95.708 269.697 C 97.032 252.673,109.929 239.284,154.358 208.813 C 158.560 205.931,164.378 201.878,167.287 199.805 C 170.196 197.733,176.543 193.244,181.391 189.830 C 225.119 159.037,262.069 127.623,298.458 90.304 C 308.779 79.719,312.173 75.900,308.521 78.983 M306.929 92.948 L 305.779 94.221 307.052 93.071 C 307.752 92.438,308.325 91.865,308.325 91.797 C 308.325 91.495,308.002 91.761,306.929 92.948 M283.815 116.063 L 282.664 117.336 283.937 116.185 C 284.638 115.552,285.211 114.979,285.211 114.912 C 285.211 114.609,284.887 114.876,283.815 116.063 M107.738 290.426 C 107.738 290.494,108.310 291.067,109.011 291.699 L 110.284 292.850 109.133 291.577 C 108.061 290.390,107.738 290.124,107.738 290.426 M150.334 308.608 C 151.030 308.694,152.264 308.696,153.076 308.611 C 153.889 308.526,153.320 308.455,151.812 308.454 C 150.304 308.452,149.639 308.521,150.334 308.608 " stroke="none" fill="#7cac84" fill-rule="evenodd"></path></g></svg>