<svg id="Layer_1" data-name="Layer 1" xmlns="http://www.w3.org/2000/svg" viewBox="0 0 40 40"><defs><style>.cls-1{fill:#005f0f;}.cls-2{fill:#fff;}</style></defs><path class="cls-1" d="M20,0A20,20,0,1,0,40,20,20,20,0,0,0,20,0Z"/><path class="cls-2" d="M9.73,8A1.7,1.7,0,0,0,8,9.71V30.29A1.7,1.7,0,0,0,9.73,32H30.27A1.7,1.7,0,0,0,32,30.29V9.71A1.7,1.7,0,0,0,30.27,8Zm18.71,3.27c-1.86,3.7-3.3,7.63-5.67,11.05a9.51,9.51,0,0,1-4.16,3.86,3.76,3.76,0,0,1-4-.65,1.63,1.63,0,0,1-.18-2.07A16.34,16.34,0,0,1,18,20.54a48.34,48.34,0,0,0,10.4-9.27Zm-1.69,1.25a48.87,48.87,0,0,1-8.45,7.27h0a24.08,24.08,0,0,0-4,3.11,2.08,2.08,0,0,0-.54,1.48,4.25,4.25,0,0,1-.26-3.74,5,5,0,0,1,2.88-2.29,34,34,0,0,0,10.37-5.84Z"/></svg>