<svg id="Layer_1" data-name="Layer 1" xmlns="http://www.w3.org/2000/svg" viewBox="0 0 168 168"><defs><style>.cls-1{isolation:isolate;opacity:0.35;}.cls-2{fill:#f2f2f2;}.cls-3{fill:#005f0f;}.cls-4{fill:#333;}.cls-5{fill:#fff;}</style></defs><path class="cls-1" d="M29,168A25,25,0,0,1,4,143V29A25,25,0,0,1,29,4H143a25,25,0,0,1,25,25V143a25,25,0,0,1-25,25Z"/><path class="cls-2" d="M25,164A25,25,0,0,1,0,139V25A25,25,0,0,1,25,0H139a25,25,0,0,1,25,25V139a25,25,0,0,1-25,25Z"/><path class="cls-3" d="M13,139V25A12,12,0,0,1,25,13H139a12,12,0,0,1,12,12V139a12,12,0,0,1-12,12H25A12,12,0,0,1,13,139Z"/><path class="cls-4" d="M139,154H25a15,15,0,0,1-15-15V25A15,15,0,0,1,25,10H139a15,15,0,0,1,15,15V139A15,15,0,0,1,139,154ZM25,16a9,9,0,0,0-9,9V139a9,9,0,0,0,9,9H139a9,9,0,0,0,9-9V25a9,9,0,0,0-9-9Z"/><path class="cls-5" d="M37.06,29.5A7.45,7.45,0,0,0,29.59,37V127a7.45,7.45,0,0,0,7.47,7.47h89.88a7.45,7.45,0,0,0,7.47-7.47V37a7.45,7.45,0,0,0-7.47-7.47Zm81.87,14.32C110.79,60,104.49,77.19,94.11,92.15,89.45,99,83.92,106,75.91,109a16.48,16.48,0,0,1-17.42-2.83c-2.74-2.29-2.36-6.25-.75-9.08,4.2-5.35,10.23-8.83,15.7-12.75C90.25,72.89,106,59.64,118.93,43.81Zm-7.41,5.47a212.35,212.35,0,0,1-37,31.8h0c-5.81,4.29-12.4,8-17.47,13.63a9.18,9.18,0,0,0-2.35,6.48C52,96.65,51.2,89.78,53.58,84.85c2.3-5.2,7.62-7.9,12.58-10C82.59,68.91,95.45,62,111.52,49.29Z"/></svg>