<svg id="Layer_1" data-name="Layer 1" xmlns="http://www.w3.org/2000/svg" viewBox="0 0 90 90"><defs><style>.cls-1{fill:#010101;isolation:isolate;opacity:0.35;}.cls-2{fill:#f3f3f3;}.cls-3{fill:#136031;}.cls-4{fill:#333;}.cls-5{fill:#fff;}</style></defs><circle class="cls-1" cx="46" cy="46" r="44"/><circle class="cls-2" cx="44" cy="44" r="44"/><path class="cls-3" d="M44,6.5A37.5,37.5,0,1,0,81.5,44,37.5,37.5,0,0,0,44,6.5Z"/><path class="cls-4" d="M44,83A39,39,0,1,1,83,44,39.05,39.05,0,0,1,44,83ZM44,8A36,36,0,1,0,80,44,36,36,0,0,0,44,8Z"/><path class="cls-5" d="M25.31,22A3.27,3.27,0,0,0,22,25.26V64.73A3.27,3.27,0,0,0,25.29,68h39.4A3.27,3.27,0,0,0,68,64.74h0V25.29A3.28,3.28,0,0,0,64.71,22H25.31Zm35.87,6.28c-3.56,7.09-6.32,14.62-10.87,21.17-2.05,3-4.47,6.07-8,7.39A7.22,7.22,0,0,1,34.7,55.6a3.13,3.13,0,0,1-.33-4c1.84-2.35,4.48-3.87,6.88-5.59A92.87,92.87,0,0,0,61.18,28.27Zm-3.24,2.39A93.34,93.34,0,0,1,41.72,44.61h0c-2.54,1.88-5.43,3.5-7.65,6a4,4,0,0,0-1,2.84,8.06,8.06,0,0,1-.49-7.16c1-2.28,3.33-3.47,5.51-4.39A65.59,65.59,0,0,0,57.94,30.67Z"/></svg>