<svg id="Layer_1" data-name="Layer 1" xmlns="http://www.w3.org/2000/svg" viewBox="0 0 90 90"><defs><style>.cls-1{fill:#010101;isolation:isolate;opacity:0.35;}.cls-2{fill:#f3f3f3;}.cls-3{fill:#f8dc76;}.cls-4{fill:#333;}.cls-5{fill:#fff;}.cls-6{fill:#212121;}</style></defs><circle class="cls-1" cx="46" cy="46" r="44"/><circle class="cls-2" cx="44" cy="44" r="44"/><path class="cls-3" d="M44,6.5A37.5,37.5,0,1,0,81.5,44,37.5,37.5,0,0,0,44,6.5Z"/><path class="cls-4" d="M44,83A39,39,0,1,1,83,44,39.05,39.05,0,0,1,44,83ZM44,8A36,36,0,1,0,80,44,36,36,0,0,0,44,8Z"/><path class="cls-5" d="M22.73,59.93S30.83,43.28,48,40.41C54.63,49,63.21,58.5,63.21,58.5s4.28-.48,4.28,2.38H62.73C37,47.55,27.4,52.12,27.5,59.93Z"/><path class="cls-6" d="M68,61.36H62.62l-.11,0C42.19,50.79,34,52.39,30.88,54.3A6.15,6.15,0,0,0,28,59.92v.48H22l.33-.68c.09-.17,8.41-16.92,25.59-19.79l.28,0,.18.22C54.43,47.94,62.21,56.67,63.41,58a5.51,5.51,0,0,1,3.74.94A2.49,2.49,0,0,1,68,60.88Zm-5.12-1H67a1.35,1.35,0,0,0-.44-.74c-1-.92-3.22-.7-3.25-.7L63,59l-.16-.18c-.09-.09-8.51-9.47-15.09-17.89-14.55,2.56-22.52,15.4-24.25,18.52H27a7,7,0,0,1,3.35-6C36,50,47.53,52.48,62.85,60.41Z"/><path class="cls-6" d="M43.22,58.5H38.77l-.13-.09C38,58,24.08,47.62,28,39.73c1.75-3.5,5.1-3.29,7.09-3.16.35,0,.68,0,1,0v.92c-.29,0-.63,0-1,0-2-.13-4.7-.31-6.18,2.63-3.4,6.81,8.84,16.37,10.21,17.41h3.11a1,1,0,0,0-.44-.56,2.43,2.43,0,0,0-2-.15l-.35.13-.21-.3c-2.8-4-.75-9.08-.67-9.29l.88.36c0,.05-1.83,4.6.39,8.11a3.3,3.3,0,0,1,2.55.37A2.08,2.08,0,0,1,43.22,58Z"/><path class="cls-5" d="M63.69,29.46c-2.11,1.5-3.82,2.85-3.82,4.76a11.63,11.63,0,0,0-4.67-.82,11.52,11.52,0,0,0-4.85.82c0-1.91-1.55-3.22-3.81-4.76-2.86,17.14,8.57,21.9,8.57,21.9S66.54,46.6,63.69,29.46Z"/><path class="cls-6" d="M55.11,51.88l-.18-.08c-.12,0-11.74-5.11-8.86-22.42l.12-.74.62.44c1.9,1.31,3.63,2.63,3.94,4.49a11.75,11.75,0,0,1,4.44-.63,12.52,12.52,0,0,1,4.25.63c.32-1.75,1.92-3,3.94-4.49l.63-.43.12.75C67,46.71,55.37,51.77,55.27,51.82Zm-8.22-21.6c-2.19,15,6.76,19.86,8.22,20.56,1.46-.7,10.39-5.58,8.23-20.54-1.76,1.28-3,2.44-3,3.92v.7l-.65-.25a11.17,11.17,0,0,0-4.5-.79,11,11,0,0,0-4.68.79l-.65.25v-.7C49.87,32.76,48.83,31.66,46.89,30.28Z"/><path class="cls-6" d="M42.25,38.5c-3.8,1.91-7.32,1.45-6.62-1.31S40.35,36.6,42.25,38.5Z"/><polygon class="cls-6" points="36.54 48.03 35.59 45.17 34.34 46.51 36.54 48.03"/><polygon class="cls-6" points="36.9 44.58 40.35 46.12 38.92 43.59 36.9 44.58"/><polygon class="cls-6" points="39.4 43.27 44.16 46.12 42.58 41.86 39.4 43.27"/><polygon class="cls-6" points="57.23 51.72 55.59 53.74 58.45 52.79 57.23 51.72"/><polygon class="cls-6" points="58.45 53.74 56.54 55.65 59.4 54.7 58.45 53.74"/><polygon class="cls-6" points="46.42 38.35 48.92 39.45 46.66 39.81 46.42 38.35"/><polygon class="cls-6" points="46.96 40.97 48.84 41.45 47.2 42.02 46.96 40.97"/><polygon class="cls-6" points="64.16 38.35 61.3 39.45 63.92 39.81 64.16 38.35"/><polygon class="cls-6" points="63.62 40.97 61.3 41.36 63.39 42.02 63.62 40.97"/><path class="cls-6" d="M49.28,35.17s-2.05-.69-2.56-5.48c.88.69,4,3.29,4,4.9C49.62,35,49.28,35.17,49.28,35.17Z"/><path class="cls-6" d="M61,35.17s2-.71,2.56-5.48c-.88.69-4,3.29-4,4.9C60.61,35,61,35.17,61,35.17Z"/><path class="cls-6" d="M33.14,52.76a12.7,12.7,0,0,1,5-.36c.24,1.49.36,3.1,1.64,4.08,1-.21,2.74-.48,3.07,1.52-1.25,0-3.72,0-3.72,0S34.64,55,33.14,52.76Z"/><path class="cls-6" d="M52.55,43.13l-.43-.23a9.28,9.28,0,0,0,1.31-4.28c0-.95-.26-1.53-.79-1.72A2.88,2.88,0,0,0,50,38l-.36-.31c.62-.74,2-1.57,3.12-1.18.51.18,1.11.7,1.11,2.16A9.55,9.55,0,0,1,52.55,43.13Z"/><rect class="cls-6" x="51.31" y="39.69" width="8.57" height="0.48"/><rect class="cls-6" x="46.07" y="43.5" width="4.76" height="0.48"/><rect class="cls-6" x="46.07" y="45.41" width="4.76" height="0.48"/><rect class="cls-6" x="59.4" y="43.5" width="4.76" height="0.48"/><rect class="cls-6" x="59.4" y="45.41" width="4.76" height="0.48"/><polygon class="cls-6" points="52.36 43.09 52.35 42.61 57.97 42.55 57.97 43.03 52.36 43.09"/><path class="cls-6" d="M57.63,43.05c0-.1-.88-2.47.21-4a3.42,3.42,0,0,1,3-1.24v.47a3,3,0,0,0-2.6,1c-.94,1.35-.16,3.56-.15,3.58Z"/><rect class="cls-6" x="54.4" y="41.64" width="0.48" height="6.1" transform="translate(-14.39 59.44) rotate(-51.34)"/><rect class="cls-6" x="52.54" y="44.45" width="6.1" height="0.48" transform="translate(-15.74 44.52) rotate(-38.66)"/><polygon class="cls-6" points="53.68 33.74 55.59 37.55 56.54 33.74 53.68 33.74"/></svg>