<svg id="Layer_1" data-name="Layer 1" xmlns="http://www.w3.org/2000/svg" viewBox="0 0 168 168"><defs><style>.cls-1{isolation:isolate;opacity:0.35;}.cls-2{fill:#f2f2f2;}.cls-3{fill:#f8dc75;}.cls-4{fill:#333;}.cls-5{fill:#fff;}.cls-6{fill:#212121;}</style></defs><path class="cls-1" d="M29,168A25,25,0,0,1,4,143V29A25,25,0,0,1,29,4H143a25,25,0,0,1,25,25V143a25,25,0,0,1-25,25Z"/><path class="cls-2" d="M25,164A25,25,0,0,1,0,139V25A25,25,0,0,1,25,0H139a25,25,0,0,1,25,25V139a25,25,0,0,1-25,25Z"/><path class="cls-3" d="M13,139V25A12,12,0,0,1,25,13H139a12,12,0,0,1,12,12V139a12,12,0,0,1-12,12H25A12,12,0,0,1,13,139Z"/><path class="cls-4" d="M139,154H25a15,15,0,0,1-15-15V25A15,15,0,0,1,25,10H139a15,15,0,0,1,15,15V139A15,15,0,0,1,139,154ZM25,16a9,9,0,0,0-9,9V139a9,9,0,0,0,9,9H139a9,9,0,0,0,9-9V25a9,9,0,0,0-9-9Z"/><path class="cls-5" d="M31.24,116.1s18.48-38,57.61-44.56c15.21,19.56,34.78,41.3,34.78,41.3s9.78-1.09,9.78,5.44H122.54c-58.69-30.44-80.66-20-80.43-2.18Z"/><path class="cls-6" d="M134.5,119.36H122.28l-.24-.12c-46.38-24-65.14-20.34-72.2-16-4.42,2.73-6.72,7.17-6.65,12.84l0,1.1H29.5l.76-1.56c.19-.39,19.18-38.63,58.41-45.17l.64-.1.4.51c13.89,17.87,31.65,37.8,34.37,40.85,1.58-.1,6-.13,8.54,2.16a5.62,5.62,0,0,1,1.88,4.4Zm-11.69-2.17h9.39a3.28,3.28,0,0,0-1-1.69c-2.34-2.1-7.37-1.58-7.42-1.58l-.55.06-.38-.41c-.19-.22-19.42-21.61-34.43-40.85C55.19,78.58,37,107.89,33.05,115h8A15.92,15.92,0,0,1,48.7,101.4C61.53,93.49,87.84,99.1,122.81,117.19Z"/><path class="cls-6" d="M78,112.84H67.84l-.29-.21C66.19,111.63,34.31,88,43.31,70c4-8,11.63-7.53,16.19-7.22.8,0,1.54.1,2.17.1V65c-.68,0-1.46-.05-2.31-.1-4.53-.3-10.74-.71-14.11,6-7.77,15.55,20.18,37.36,23.31,39.74h7.09a2.36,2.36,0,0,0-1-1.28,5.56,5.56,0,0,0-4.66-.33l-.79.3-.48-.69C62.32,99.59,67,87.92,67.19,87.43l2,.82c0,.11-4.17,10.5.9,18.52a7.56,7.56,0,0,1,5.82.83A4.75,4.75,0,0,1,78,111.75Z"/><path class="cls-5" d="M124.72,46.54c-4.8,3.44-8.7,6.52-8.7,10.87a26.7,26.7,0,0,0-10.66-1.87,26.33,26.33,0,0,0-11.08,1.87c0-4.35-3.53-7.34-8.69-10.87-6.53,39.13,19.56,50,19.56,50S131.24,85.67,124.72,46.54Z"/><path class="cls-6" d="M105.15,97.72l-.42-.18c-.27-.11-26.8-11.66-20.22-51.18l.28-1.68,1.41,1c4.34,3,8.28,6,9,10.26a26.75,26.75,0,0,1,10.12-1.45,28.35,28.35,0,0,1,9.71,1.45c.73-4,4.39-6.93,9-10.25l1.42-1,.29,1.72c6.58,39.52-20,51.07-20.22,51.18ZM86.39,48.42c-5,34.18,15.43,45.34,18.76,46.92,3.33-1.58,23.72-12.73,18.77-46.88-4,2.92-6.81,5.57-6.81,8.95V59l-1.48-.57a25.74,25.74,0,0,0-10.28-1.79,25.06,25.06,0,0,0-10.68,1.79L93.19,59V57.41C93.19,54.09,90.81,51.58,86.39,48.42Z"/><path class="cls-6" d="M75.8,67.19c-8.69,4.35-16.71,3.31-15.12-3S71.46,62.84,75.8,67.19Z"/><polygon class="cls-6" points="62.76 88.93 60.59 82.41 57.73 85.46 62.76 88.93"/><polygon class="cls-6" points="63.58 81.05 71.45 84.58 68.19 78.81 63.58 81.05"/><polygon class="cls-6" points="69.28 78.06 80.15 84.58 76.55 74.86 69.28 78.06"/><polygon class="cls-6" points="109.98 97.35 106.24 101.97 112.76 99.8 109.98 97.35"/><polygon class="cls-6" points="112.76 101.97 108.41 106.32 114.93 104.15 112.76 101.97"/><polygon class="cls-6" points="85.31 66.85 91.02 69.36 85.86 70.18 85.31 66.85"/><polygon class="cls-6" points="86.54 72.83 90.82 73.92 87.08 75.21 86.54 72.83"/><polygon class="cls-6" points="125.8 66.85 119.28 69.36 125.26 70.18 125.8 66.85"/><polygon class="cls-6" points="124.58 72.83 119.28 73.71 124.04 75.21 124.58 72.83"/><path class="cls-6" d="M91.84,59.58S87.15,58,86,47.08c2,1.56,9.14,7.51,9.07,11.18C92.62,59.21,91.84,59.58,91.84,59.58Z"/><path class="cls-6" d="M118.49,59.58s4.69-1.63,5.85-12.5c-2,1.56-9.14,7.51-9.07,11.18C117.71,59.21,118.49,59.58,118.49,59.58Z"/><path class="cls-6" d="M55,99.73s6.38-1.83,11.41-.81c.54,3.39.81,7.06,3.74,9.3,2.31-.47,6.25-1.08,7,3.47-2.85-.07-8.49.13-8.49.13S58.41,104.89,55,99.73Z"/><path class="cls-6" d="M99.31,77.74l-1-.52a21,21,0,0,0,3-9.76c0-2.17-.6-3.49-1.8-3.92-1.87-.68-4.72.93-5.93,2.38l-.83-.69c1.41-1.7,4.68-3.6,7.13-2.71,1.15.41,2.52,1.61,2.52,4.94C102.43,70.48,101.38,73.94,99.31,77.74Z"/><rect class="cls-6" x="96.46" y="69.91" width="19.57" height="1.09"/><rect class="cls-6" x="84.5" y="78.6" width="10.87" height="1.09"/><rect class="cls-6" x="84.5" y="82.95" width="10.87" height="1.09"/><rect class="cls-6" x="114.93" y="78.6" width="10.87" height="1.09"/><rect class="cls-6" x="114.93" y="82.95" width="10.87" height="1.09"/><polygon class="cls-6" points="98.86 77.65 98.85 76.56 111.67 76.43 111.68 77.52 98.86 77.65"/><path class="cls-6" d="M110.89,77.56c-.08-.23-2-5.64.48-9.16,1.32-1.89,3.62-2.84,6.83-2.84v1.08c-2.84,0-4.84.8-5.94,2.38-2.15,3.06-.36,8.12-.34,8.17Z"/><rect class="cls-6" x="103.52" y="74.36" width="1.09" height="13.92" transform="translate(-24.44 111.78) rotate(-51.34)"/><rect class="cls-6" x="99.28" y="80.78" width="13.92" height="1.09" transform="translate(-27.52 84.18) rotate(-38.66)"/><polygon class="cls-6" points="101.89 56.32 106.24 65.02 108.41 56.32 101.89 56.32"/></svg>