<svg id="Layer_1" data-name="Layer 1" xmlns="http://www.w3.org/2000/svg" viewBox="0 0 170 168"><defs><style>.cls-1{isolation:isolate;opacity:0.35;}.cls-2{fill:#f2f2f2;}.cls-3{fill:#b7dcaa;}.cls-4{fill:#333;}.cls-5{font-size:33.8px;fill:#fff;font-family:FranklinGothic-Demi, Franklin Gothic Demi;font-weight:300;}.cls-6{letter-spacing:-0.03em;}.cls-7{letter-spacing:0.02em;}</style></defs><path class="cls-1" d="M31,168A25,25,0,0,1,6,143V29A25,25,0,0,1,31,4H145a25,25,0,0,1,25,25V143a25,25,0,0,1-25,25Z"/><path class="cls-2" d="M25,164A25,25,0,0,1,0,139V25A25,25,0,0,1,25,0H139a25,25,0,0,1,25,25V139a25,25,0,0,1-25,25Z"/><path class="cls-3" d="M13,139V25A12,12,0,0,1,25,13H139a12,12,0,0,1,12,12V139a12,12,0,0,1-12,12H25A12,12,0,0,1,13,139Z"/><path class="cls-4" d="M139,154H25a15,15,0,0,1-15-15V25A15,15,0,0,1,25,10H139a15,15,0,0,1,15,15V139A15,15,0,0,1,139,154ZM25,16a9,9,0,0,0-9,9V139a9,9,0,0,0,9,9H139a9,9,0,0,0,9-9V25a9,9,0,0,0-9-9Z"/><text class="cls-5" transform="translate(29.5 90.9)"><tspan class="cls-6">X</tspan><tspan x="19.39" y="0">Que</tspan><tspan class="cls-7" x="77.51" y="0">r</tspan><tspan x="89.95" y="0">y</tspan></text></svg>