<svg id="Layer_1" data-name="Layer 1" xmlns="http://www.w3.org/2000/svg" viewBox="0 0 90 90"><defs><style>.cls-1{fill:#010101;opacity:0.35;}.cls-1,.cls-5,.cls-6,.cls-7{isolation:isolate;}.cls-2{fill:#f3f3f3;}.cls-3{fill:#b8dcaa;}.cls-4{fill:#333;}.cls-5,.cls-6,.cls-7{font-size:14.42px;fill:#fff;font-family:FranklinGothic-Heavy, Franklin Gothic Heavy;font-weight:800;}.cls-5{letter-spacing:-0.03em;}.cls-7{letter-spacing:0.02em;}</style></defs><circle class="cls-1" cx="46" cy="46" r="44"/><circle class="cls-2" cx="44" cy="44" r="44"/><path class="cls-3" d="M44,6.5A37.5,37.5,0,1,0,81.5,44,37.5,37.5,0,0,0,44,6.5Z"/><path class="cls-4" d="M44,83A39,39,0,1,1,83,44,39.05,39.05,0,0,1,44,83ZM44,8A36,36,0,1,0,80,44,36,36,0,0,0,44,8Z"/><text class="cls-5" transform="translate(22.19 48.8)">X</text><text class="cls-6" transform="translate(30.46 48.8)">Que</text><text class="cls-7" transform="translate(55.26 48.8)">r</text><text class="cls-6" transform="translate(60.57 48.8)">y</text></svg>